<?xml version="1.0" encoding="UTF-8"?>
<svg xmlns="http://www.w3.org/2000/svg" xmlns:xlink="http://www.w3.org/1999/xlink" width="525pt" height="899.99999pt" viewBox="0 0 525 899.99999" version="1.2">
<defs>
<clipPath id="clip1">
  <path d="M 302.992188 212.214844 L 509.804688 212.214844 L 509.804688 480.714844 L 302.992188 480.714844 Z M 302.992188 212.214844 "/>
</clipPath>
<clipPath id="clip2">
  <path d="M 302.992188 3 L 509.804688 3 L 509.804688 271.5 L 302.992188 271.5 Z M 302.992188 3 "/>
</clipPath>
<clipPath id="clip3">
  <path d="M 156.441406 626.820312 L 363.066406 626.820312 L 363.066406 895 L 156.441406 895 Z M 156.441406 626.820312 "/>
</clipPath>
<clipPath id="clip4">
  <path d="M 157.144531 419.667969 L 363.769531 419.667969 L 363.769531 688.167969 L 157.144531 688.167969 Z M 157.144531 419.667969 "/>
</clipPath>
<clipPath id="clip5">
  <path d="M 9.710938 241.355469 L 216.335938 241.355469 L 216.335938 509.855469 L 9.710938 509.855469 Z M 9.710938 241.355469 "/>
</clipPath>
<clipPath id="clip6">
  <path d="M 174.300781 822.175781 L 198.300781 822.175781 L 198.300781 849.175781 L 174.300781 849.175781 Z M 174.300781 822.175781 "/>
</clipPath>
<clipPath id="clip7">
  <path d="M 169.898438 257 L 203.648438 257 L 203.648438 287 L 169.898438 287 Z M 169.898438 257 "/>
</clipPath>
<clipPath id="clip8">
  <path d="M 25.574219 293.09375 L 53.207031 293.09375 L 53.207031 318 L 25.574219 318 Z M 25.574219 293.09375 "/>
</clipPath>
<clipPath id="clip9">
  <path d="M 31 293.09375 L 48 293.09375 L 48 308 L 31 308 Z M 31 293.09375 "/>
</clipPath>
<clipPath id="clip10">
  <path d="M 317.550781 19.851562 L 348 19.851562 L 348 51.351562 L 317.550781 51.351562 Z M 317.550781 19.851562 "/>
</clipPath>
<clipPath id="clip11">
  <path d="M 460.050781 253 L 501.300781 253 L 501.300781 294 L 460.050781 294 Z M 460.050781 253 "/>
</clipPath>
<clipPath id="clip12">
  <path d="M 316.605469 640.375 L 349.28125 640.375 L 349.28125 673 L 316.605469 673 Z M 316.605469 640.375 "/>
</clipPath>
<clipPath id="clip13">
  <path d="M 320.226562 852.722656 L 344.214844 852.722656 L 344.214844 880.472656 L 320.226562 880.472656 Z M 320.226562 852.722656 "/>
</clipPath>
<clipPath id="clip14">
  <path d="M 319.421875 433.820312 L 347.171875 433.820312 L 347.171875 465.167969 L 319.421875 465.167969 Z M 319.421875 433.820312 "/>
</clipPath>
<clipPath id="clip15">
  <path d="M 318.683594 226.574219 L 347.074219 226.574219 L 347.074219 254.058594 L 318.683594 254.058594 Z M 318.683594 226.574219 "/>
</clipPath>
<clipPath id="clip16">
  <path d="M 466.078125 61 L 493.828125 61 L 493.828125 75.285156 L 466.078125 75.285156 Z M 466.078125 61 "/>
</clipPath>
<clipPath id="clip17">
  <path d="M 466.078125 59 L 493.828125 59 L 493.828125 73 L 466.078125 73 Z M 466.078125 59 "/>
</clipPath>
<clipPath id="clip18">
  <path d="M 466.078125 57 L 493.828125 57 L 493.828125 71 L 466.078125 71 Z M 466.078125 57 "/>
</clipPath>
<clipPath id="clip19">
  <path d="M 466.078125 54 L 493.828125 54 L 493.828125 68 L 466.078125 68 Z M 466.078125 54 "/>
</clipPath>
<clipPath id="clip20">
  <path d="M 466.078125 52 L 493.828125 52 L 493.828125 66 L 466.078125 66 Z M 466.078125 52 "/>
</clipPath>
<clipPath id="clip21">
  <path d="M 466.078125 49.890625 L 493.828125 49.890625 L 493.828125 63 L 466.078125 63 Z M 466.078125 49.890625 "/>
</clipPath>
<clipPath id="clip22">
  <path d="M 175.246094 468.105469 L 198.496094 468.105469 L 198.496094 491.355469 L 175.246094 491.355469 Z M 175.246094 468.105469 "/>
</clipPath>
<clipPath id="clip23">
  <path d="M 15.765625 49 L 31 49 L 31 64.523438 L 15.765625 64.523438 Z M 15.765625 49 "/>
</clipPath>
<clipPath id="clip24">
  <path d="M 39 50 L 53 50 L 53 64.523438 L 39 64.523438 Z M 39 50 "/>
</clipPath>
<clipPath id="clip25">
  <path d="M 67.597656 19.851562 L 112.273438 19.851562 L 112.273438 64.523438 L 67.597656 64.523438 Z M 67.597656 19.851562 "/>
</clipPath>
<clipPath id="clip26">
  <path d="M 134 26.550781 L 185 26.550781 L 185 44 L 134 44 Z M 134 26.550781 "/>
</clipPath>
<clipPath id="clip27">
  <path d="M 132.144531 46 L 186.894531 46 L 186.894531 58.800781 L 132.144531 58.800781 Z M 132.144531 46 "/>
</clipPath>
</defs>
<g id="surface1">
<g clip-path="url(#clip1)" clip-rule="nonzero">
<path style=" stroke:none;fill-rule:nonzero;fill:rgb(0%,0%,0%);fill-opacity:1;" d="M 333.40625 212.253906 C 316.679688 212.253906 302.992188 225.996094 302.992188 242.789062 C 302.992188 257.484375 313.492188 269.890625 327.324219 272.753906 L 327.324219 420.46875 C 313.492188 423.332031 302.992188 435.734375 302.992188 450.429688 C 302.992188 467.226562 316.679688 480.964844 333.40625 480.964844 C 350.132812 480.964844 363.820312 467.226562 363.820312 450.429688 C 363.820312 435.808594 353.410156 423.402344 339.679688 420.46875 C 340.820312 399.714844 348.28125 389.097656 359.445312 381.917969 C 371.613281 374.117188 389.101562 370.824219 407.347656 367.796875 C 425.597656 364.765625 444.605469 361.902344 459.8125 352.144531 C 473.949219 343.082031 483.738281 327.429688 485.09375 303.289062 C 499.089844 300.570312 509.804688 288.140625 509.804688 273.328125 C 509.804688 256.53125 496.117188 242.789062 479.390625 242.789062 C 462.664062 242.789062 448.976562 256.53125 448.976562 273.328125 C 448.976562 287.949219 459.382812 300.355469 473.117188 303.289062 C 471.976562 324.019531 464.515625 334.683594 453.347656 341.839844 C 441.183594 349.617188 423.695312 352.742188 405.449219 355.773438 C 387.199219 358.800781 368.191406 361.855469 352.984375 371.613281 C 347.851562 374.902344 343.3125 379.125 339.488281 384.207031 L 339.488281 272.753906 C 353.316406 269.890625 363.820312 257.484375 363.820312 242.789062 C 363.820312 225.996094 350.132812 212.253906 333.40625 212.253906 Z M 333.40625 224.46875 C 343.550781 224.46875 351.652344 232.605469 351.652344 242.789062 C 351.652344 252.976562 343.550781 261.113281 333.40625 261.113281 C 323.257812 261.113281 315.15625 252.976562 315.15625 242.789062 C 315.15625 232.605469 323.257812 224.46875 333.40625 224.46875 Z M 479.390625 255.003906 C 489.535156 255.003906 497.640625 263.140625 497.640625 273.328125 C 497.640625 283.511719 489.535156 291.648438 479.390625 291.648438 C 469.246094 291.648438 461.144531 283.511719 461.144531 273.328125 C 461.144531 263.140625 469.246094 255.003906 479.390625 255.003906 Z M 333.40625 432.109375 C 343.550781 432.109375 351.652344 440.246094 351.652344 450.429688 C 351.652344 460.617188 343.550781 468.753906 333.40625 468.753906 C 323.257812 468.753906 315.15625 460.617188 315.15625 450.429688 C 315.15625 440.246094 323.257812 432.109375 333.40625 432.109375 Z M 333.40625 432.109375 "/>
</g>
<g clip-path="url(#clip2)" clip-rule="nonzero">
<path style=" stroke:none;fill-rule:nonzero;fill:rgb(0%,0%,0%);fill-opacity:1;" d="M 333.40625 3.042969 C 316.679688 3.042969 302.992188 16.78125 302.992188 33.578125 C 302.992188 48.273438 313.492188 60.675781 327.324219 63.539062 L 327.324219 211.253906 C 313.492188 214.117188 302.992188 226.523438 302.992188 241.21875 C 302.992188 258.011719 316.679688 271.753906 333.40625 271.753906 C 350.132812 271.753906 363.820312 258.011719 363.820312 241.21875 C 363.820312 226.59375 353.410156 214.1875 339.679688 211.253906 C 340.820312 190.5 348.28125 179.882812 359.445312 172.703125 C 371.613281 164.902344 389.101562 161.609375 407.347656 158.582031 C 425.597656 155.550781 444.605469 152.6875 459.8125 142.929688 C 473.949219 133.867188 483.738281 118.214844 485.09375 94.074219 C 499.089844 91.355469 509.804688 78.925781 509.804688 64.113281 C 509.804688 47.316406 496.117188 33.578125 479.390625 33.578125 C 462.664062 33.578125 448.976562 47.316406 448.976562 64.113281 C 448.976562 78.734375 459.382812 91.140625 473.117188 94.074219 C 471.976562 114.804688 464.515625 125.46875 453.347656 132.625 C 441.183594 140.402344 423.695312 143.527344 405.449219 146.558594 C 387.199219 149.585938 368.191406 152.640625 352.984375 162.398438 C 347.851562 165.691406 343.3125 169.910156 339.488281 174.992188 L 339.488281 63.539062 C 353.316406 60.675781 363.820312 48.273438 363.820312 33.578125 C 363.820312 16.78125 350.132812 3.042969 333.40625 3.042969 Z M 333.40625 15.253906 C 343.550781 15.253906 351.652344 23.390625 351.652344 33.578125 C 351.652344 43.761719 343.550781 51.898438 333.40625 51.898438 C 323.257812 51.898438 315.15625 43.761719 315.15625 33.578125 C 315.15625 23.390625 323.257812 15.253906 333.40625 15.253906 Z M 479.390625 45.789062 C 489.535156 45.789062 497.640625 53.925781 497.640625 64.113281 C 497.640625 74.296875 489.535156 82.433594 479.390625 82.433594 C 469.246094 82.433594 461.144531 74.296875 461.144531 64.113281 C 461.144531 53.925781 469.246094 45.789062 479.390625 45.789062 Z M 333.40625 222.894531 C 343.550781 222.894531 351.652344 231.03125 351.652344 241.21875 C 351.652344 251.402344 343.550781 259.539062 333.40625 259.539062 C 323.257812 259.539062 315.15625 251.402344 315.15625 241.21875 C 315.15625 231.03125 323.257812 222.894531 333.40625 222.894531 Z M 333.40625 222.894531 "/>
</g>
<g clip-path="url(#clip3)" clip-rule="nonzero">
<path style=" stroke:none;fill-rule:nonzero;fill:rgb(0%,0%,0%);fill-opacity:1;" d="M 332.839844 894.988281 C 349.566406 894.988281 363.253906 881.246094 363.253906 864.453125 C 363.253906 849.757812 352.75 837.351562 338.921875 834.488281 L 338.921875 686.773438 C 352.75 683.910156 363.253906 671.507812 363.253906 656.8125 C 363.253906 640.015625 349.566406 626.277344 332.839844 626.277344 C 316.113281 626.277344 302.425781 640.015625 302.425781 656.8125 C 302.425781 671.433594 312.832031 683.839844 326.566406 686.773438 C 325.425781 707.527344 317.964844 718.144531 306.796875 725.324219 C 294.632812 733.125 277.144531 736.417969 258.894531 739.445312 C 240.648438 742.476562 221.640625 745.339844 206.433594 755.097656 C 192.296875 764.160156 182.503906 779.8125 181.152344 803.953125 C 167.15625 806.671875 156.441406 819.101562 156.441406 833.914062 C 156.441406 850.710938 170.125 864.453125 186.855469 864.453125 C 203.582031 864.453125 217.265625 850.710938 217.265625 833.914062 C 217.265625 819.292969 206.859375 806.886719 193.125 803.953125 C 194.265625 783.222656 201.726562 772.558594 212.894531 765.402344 C 225.0625 757.625 242.550781 754.5 260.796875 751.46875 C 279.046875 748.441406 298.054688 745.386719 313.261719 735.628906 C 318.394531 732.339844 322.929688 728.117188 326.757812 723.035156 L 326.757812 834.488281 C 312.929688 837.351562 302.425781 849.757812 302.425781 864.453125 C 302.425781 881.246094 316.113281 894.988281 332.839844 894.988281 Z M 332.839844 882.773438 C 322.695312 882.773438 314.589844 874.636719 314.589844 864.453125 C 314.589844 854.265625 322.695312 846.128906 332.839844 846.128906 C 342.984375 846.128906 351.085938 854.265625 351.085938 864.453125 C 351.085938 874.636719 342.984375 882.773438 332.839844 882.773438 Z M 186.855469 852.238281 C 176.707031 852.238281 168.605469 844.101562 168.605469 833.914062 C 168.605469 823.730469 176.707031 815.59375 186.855469 815.59375 C 197 815.59375 205.101562 823.730469 205.101562 833.914062 C 205.101562 844.101562 197 852.238281 186.855469 852.238281 Z M 332.839844 675.132812 C 322.695312 675.132812 314.589844 666.996094 314.589844 656.8125 C 314.589844 646.625 322.695312 638.488281 332.839844 638.488281 C 342.984375 638.488281 351.085938 646.625 351.085938 656.8125 C 351.085938 666.996094 342.984375 675.132812 332.839844 675.132812 Z M 332.839844 675.132812 "/>
</g>
<g clip-path="url(#clip4)" clip-rule="nonzero">
<path style=" stroke:none;fill-rule:nonzero;fill:rgb(0%,0%,0%);fill-opacity:1;" d="M 333.542969 419.707031 C 350.269531 419.707031 363.957031 433.449219 363.957031 450.242188 C 363.957031 464.9375 353.453125 477.34375 339.625 480.207031 L 339.625 627.921875 C 353.453125 630.785156 363.957031 643.1875 363.957031 657.882812 C 363.957031 674.679688 350.269531 688.417969 333.542969 688.417969 C 316.816406 688.417969 303.128906 674.679688 303.128906 657.882812 C 303.128906 643.261719 313.535156 630.855469 327.269531 627.921875 C 326.128906 607.167969 318.667969 596.550781 307.5 589.371094 C 295.335938 581.570312 277.847656 578.277344 259.601562 575.25 C 241.351562 572.21875 222.34375 569.355469 207.136719 559.597656 C 193 550.535156 183.210938 534.882812 181.855469 510.742188 C 167.859375 508.023438 157.144531 495.59375 157.144531 480.78125 C 157.144531 463.984375 170.828125 450.242188 187.558594 450.242188 C 204.285156 450.242188 217.972656 463.984375 217.972656 480.78125 C 217.972656 495.402344 207.5625 507.808594 193.832031 510.742188 C 194.972656 531.472656 202.429688 542.136719 213.597656 549.292969 C 225.765625 557.070312 243.253906 560.195312 261.5 563.226562 C 279.75 566.253906 298.757812 569.308594 313.964844 579.066406 C 319.097656 582.355469 323.632812 586.578125 327.460938 591.660156 L 327.460938 480.207031 C 313.632812 477.34375 303.128906 464.9375 303.128906 450.242188 C 303.128906 433.449219 316.816406 419.707031 333.542969 419.707031 Z M 333.542969 431.921875 C 323.398438 431.921875 315.292969 440.058594 315.292969 450.242188 C 315.292969 460.429688 323.398438 468.566406 333.542969 468.566406 C 343.6875 468.566406 351.792969 460.429688 351.792969 450.242188 C 351.792969 440.058594 343.6875 431.921875 333.542969 431.921875 Z M 187.558594 462.457031 C 177.410156 462.457031 169.308594 470.59375 169.308594 480.78125 C 169.308594 490.964844 177.410156 499.101562 187.558594 499.101562 C 197.703125 499.101562 205.804688 490.964844 205.804688 480.78125 C 205.804688 470.59375 197.703125 462.457031 187.558594 462.457031 Z M 333.542969 639.5625 C 323.398438 639.5625 315.292969 647.699219 315.292969 657.882812 C 315.292969 668.070312 323.398438 676.207031 333.542969 676.207031 C 343.6875 676.207031 351.792969 668.070312 351.792969 657.882812 C 351.792969 647.699219 343.6875 639.5625 333.542969 639.5625 Z M 333.542969 639.5625 "/>
</g>
<g clip-path="url(#clip5)" clip-rule="nonzero">
<path style=" stroke:none;fill-rule:nonzero;fill:rgb(0%,0%,0%);fill-opacity:1;" d="M 186.109375 241.398438 C 202.835938 241.398438 216.523438 255.140625 216.523438 271.933594 C 216.523438 286.628906 206.019531 299.035156 192.191406 301.894531 L 192.191406 449.609375 C 206.019531 452.472656 216.523438 464.878906 216.523438 479.574219 C 216.523438 496.367188 202.835938 510.109375 186.109375 510.109375 C 169.382812 510.109375 155.695312 496.367188 155.695312 479.574219 C 155.695312 464.949219 166.101562 452.546875 179.835938 449.609375 C 178.695312 428.855469 171.234375 418.242188 160.066406 411.058594 C 147.902344 403.257812 130.414062 399.96875 112.167969 396.9375 C 93.917969 393.90625 74.910156 391.046875 59.703125 381.289062 C 45.566406 372.222656 35.777344 356.574219 34.421875 332.429688 C 20.425781 329.710938 9.710938 317.28125 9.710938 302.46875 C 9.710938 285.675781 23.398438 271.933594 40.125 271.933594 C 56.851562 271.933594 70.539062 285.675781 70.539062 302.46875 C 70.539062 317.09375 60.128906 329.496094 46.398438 332.429688 C 47.539062 353.160156 55 363.824219 66.164062 370.980469 C 78.332031 378.757812 95.820312 381.882812 114.066406 384.914062 C 132.316406 387.945312 151.324219 390.996094 166.53125 400.753906 C 171.664062 404.046875 176.203125 408.269531 180.027344 413.351562 L 180.027344 301.894531 C 166.199219 299.035156 155.695312 286.628906 155.695312 271.933594 C 155.695312 255.140625 169.382812 241.398438 186.109375 241.398438 Z M 186.109375 253.613281 C 175.964844 253.613281 167.859375 261.746094 167.859375 271.933594 C 167.859375 282.121094 175.964844 290.253906 186.109375 290.253906 C 196.253906 290.253906 204.359375 282.121094 204.359375 271.933594 C 204.359375 261.746094 196.253906 253.613281 186.109375 253.613281 Z M 40.125 284.148438 C 29.976562 284.148438 21.875 292.28125 21.875 302.46875 C 21.875 312.65625 29.976562 320.789062 40.125 320.789062 C 50.269531 320.789062 58.371094 312.65625 58.371094 302.46875 C 58.371094 292.28125 50.269531 284.148438 40.125 284.148438 Z M 186.109375 461.253906 C 175.964844 461.253906 167.859375 469.386719 167.859375 479.574219 C 167.859375 489.761719 175.964844 497.894531 186.109375 497.894531 C 196.253906 497.894531 204.359375 489.761719 204.359375 479.574219 C 204.359375 469.386719 196.253906 461.253906 186.109375 461.253906 Z M 186.109375 461.253906 "/>
</g>
<g clip-path="url(#clip6)" clip-rule="nonzero">
<path style=" stroke:none;fill-rule:nonzero;fill:rgb(0.779724%,46.669006%,74.119568%);fill-opacity:1;" d="M 198.476562 822.175781 L 174.300781 822.175781 L 176.433594 846.671875 L 186.390625 849.554688 L 196.34375 846.671875 Z M 198.476562 822.175781 "/>
</g>
<path style=" stroke:none;fill-rule:nonzero;fill:rgb(1.179504%,60.778809%,89.7995%);fill-opacity:1;" d="M 186.390625 824.335938 L 186.390625 847.320312 L 194.351562 845.015625 L 196.128906 824.335938 Z M 186.390625 824.335938 "/>
<path style=" stroke:none;fill-rule:nonzero;fill:rgb(100%,100%,100%);fill-opacity:1;" d="M 192.859375 827.9375 L 186.390625 827.9375 L 186.390625 830.820312 L 189.875 830.820312 L 189.660156 833.703125 L 186.390625 833.703125 L 186.390625 836.585938 L 189.519531 836.585938 L 189.304688 839.828125 L 186.390625 840.835938 L 186.390625 843.863281 L 192.007812 841.988281 L 192.503906 833.703125 Z M 192.859375 827.9375 "/>
<path style=" stroke:none;fill-rule:nonzero;fill:rgb(93.328857%,93.328857%,93.328857%);fill-opacity:1;" d="M 186.390625 827.9375 L 186.390625 830.820312 L 180.0625 830.820312 L 179.847656 827.9375 Z M 183.117188 833.703125 L 183.261719 836.585938 L 186.390625 836.585938 L 186.390625 833.703125 Z M 183.402344 838.027344 L 180.558594 838.027344 L 180.773438 841.988281 L 186.390625 843.863281 L 186.390625 840.835938 L 183.472656 839.828125 Z M 183.402344 838.027344 "/>
<path style=" stroke:none;fill-rule:nonzero;fill:rgb(32.548523%,75.689697%,87.059021%);fill-opacity:1;" d="M 189.898438 271.910156 C 189.898438 272.308594 189.820312 272.691406 189.667969 273.058594 C 189.511719 273.425781 189.292969 273.75 189.007812 274.03125 C 188.722656 274.3125 188.394531 274.53125 188.023438 274.683594 C 187.652344 274.835938 187.265625 274.910156 186.863281 274.910156 C 186.460938 274.910156 186.074219 274.835938 185.703125 274.683594 C 185.328125 274.53125 185 274.3125 184.714844 274.03125 C 184.433594 273.75 184.210938 273.425781 184.058594 273.058594 C 183.90625 272.691406 183.828125 272.308594 183.828125 271.910156 C 183.828125 271.511719 183.90625 271.128906 184.058594 270.761719 C 184.210938 270.394531 184.433594 270.070312 184.714844 269.789062 C 185 269.503906 185.328125 269.289062 185.703125 269.136719 C 186.074219 268.984375 186.460938 268.90625 186.863281 268.90625 C 187.265625 268.90625 187.652344 268.984375 188.023438 269.136719 C 188.394531 269.289062 188.722656 269.503906 189.007812 269.789062 C 189.292969 270.070312 189.511719 270.394531 189.667969 270.761719 C 189.820312 271.128906 189.898438 271.511719 189.898438 271.910156 Z M 189.898438 271.910156 "/>
<g clip-path="url(#clip7)" clip-rule="nonzero">
<path style=" stroke:none;fill-rule:nonzero;fill:rgb(32.548523%,75.689697%,87.059021%);fill-opacity:1;" d="M 176.28125 277.222656 C 176.578125 277.320312 176.875 277.421875 177.183594 277.507812 C 177.082031 277.898438 176.996094 278.285156 176.917969 278.6875 C 176.222656 282.324219 176.765625 285.207031 178.5 286.195312 C 180.289062 287.21875 183.296875 286.167969 186.226562 283.632812 C 186.457031 283.429688 186.691406 283.222656 186.921875 282.996094 C 187.214844 283.28125 187.519531 283.546875 187.824219 283.808594 C 190.65625 286.21875 193.460938 287.195312 195.191406 286.207031 C 196.980469 285.1875 197.5625 282.085938 196.808594 278.3125 C 196.75 278.023438 196.683594 277.730469 196.609375 277.429688 C 196.820312 277.371094 197.027344 277.304688 197.234375 277.238281 C 201.058594 275.988281 203.824219 273.960938 203.824219 271.882812 C 203.824219 269.898438 201.214844 267.972656 197.609375 266.746094 C 197.253906 266.628906 196.894531 266.515625 196.539062 266.410156 C 196.597656 266.167969 196.652344 265.925781 196.703125 265.683594 C 197.519531 261.777344 196.980469 258.640625 195.171875 257.605469 C 193.429688 256.617188 190.585938 257.644531 187.710938 260.121094 C 187.425781 260.363281 187.148438 260.621094 186.882812 260.875 C 186.703125 260.707031 186.519531 260.535156 186.332031 260.371094 C 183.316406 257.722656 180.296875 256.609375 178.488281 257.652344 C 176.75 258.648438 176.234375 261.605469 176.964844 265.296875 C 177.035156 265.664062 177.117188 266.023438 177.207031 266.390625 C 176.785156 266.507812 176.367188 266.640625 175.976562 266.777344 C 172.4375 267.992188 169.898438 269.90625 169.898438 271.882812 C 169.898438 273.929688 172.601562 275.980469 176.28125 277.222656 Z M 185.292969 282.5625 C 184.199219 283.550781 182.933594 284.335938 181.554688 284.875 C 180.820312 285.222656 179.972656 285.257812 179.214844 284.960938 C 178.160156 284.359375 177.722656 282.046875 178.320312 278.933594 C 178.394531 278.566406 178.472656 278.199219 178.566406 277.835938 C 180.050781 278.152344 181.546875 278.367188 183.0625 278.480469 C 183.9375 279.707031 184.898438 280.878906 185.925781 281.976562 C 185.714844 282.179688 185.503906 282.378906 185.289062 282.5625 Z M 193.707031 270.257812 C 193.394531 269.679688 193.078125 269.105469 192.746094 268.542969 C 192.421875 267.984375 192.082031 267.433594 191.734375 266.890625 C 192.800781 267.023438 193.820312 267.199219 194.773438 267.414062 C 194.46875 268.386719 194.113281 269.328125 193.707031 270.257812 Z M 193.71875 273.519531 C 194.144531 274.472656 194.515625 275.433594 194.839844 276.425781 C 193.8125 276.652344 192.773438 276.832031 191.726562 276.949219 C 192.082031 276.398438 192.421875 275.835938 192.753906 275.269531 C 193.089844 274.695312 193.410156 274.109375 193.71875 273.519531 Z M 192.953125 271.890625 C 192.511719 272.796875 192.03125 273.6875 191.523438 274.5625 C 191.019531 275.433594 190.484375 276.28125 189.921875 277.121094 C 188.933594 277.191406 187.90625 277.222656 186.867188 277.222656 C 185.824219 277.222656 184.820312 277.191406 183.84375 277.132812 C 183.269531 276.300781 182.726562 275.449219 182.214844 274.578125 C 181.703125 273.707031 181.234375 272.820312 180.789062 271.917969 L 180.785156 271.917969 C 181.222656 271.011719 181.703125 270.128906 182.203125 269.257812 C 182.707031 268.386719 183.253906 267.539062 183.820312 266.707031 C 184.816406 266.636719 185.828125 266.597656 186.863281 266.597656 C 187.898438 266.597656 188.917969 266.636719 189.90625 266.707031 C 190.46875 267.535156 191.007812 268.378906 191.515625 269.242188 C 192.027344 270.109375 192.503906 270.992188 192.953125 271.890625 Z M 180.972656 268.554688 C 180.644531 269.109375 180.328125 269.679688 180.027344 270.257812 C 179.613281 269.28125 179.261719 268.324219 178.96875 267.402344 C 179.921875 267.191406 180.9375 267.019531 181.988281 266.890625 C 181.640625 267.433594 181.296875 267.988281 180.972656 268.554688 Z M 180.03125 273.574219 C 180.335938 274.148438 180.648438 274.71875 180.976562 275.285156 C 181.316406 275.855469 181.660156 276.425781 182.023438 276.980469 C 180.992188 276.867188 179.964844 276.707031 178.949219 276.488281 C 179.242188 275.546875 179.605469 274.570312 180.03125 273.574219 Z M 186.917969 280.96875 C 186.242188 280.25 185.566406 279.449219 184.910156 278.589844 C 185.546875 278.617188 186.199219 278.628906 186.863281 278.628906 C 187.546875 278.628906 188.214844 278.617188 188.878906 278.585938 C 188.269531 279.414062 187.613281 280.210938 186.917969 280.96875 Z M 195.578125 282.9375 C 195.515625 283.734375 195.121094 284.480469 194.484375 284.988281 C 193.429688 285.589844 191.183594 284.804688 188.757812 282.746094 C 188.480469 282.507812 188.203125 282.253906 187.917969 281.992188 C 188.929688 280.886719 189.863281 279.710938 190.714844 278.480469 C 192.230469 278.355469 193.742188 278.128906 195.234375 277.792969 C 195.300781 278.0625 195.359375 278.328125 195.414062 278.59375 C 195.738281 280.007812 195.789062 281.480469 195.578125 282.9375 Z M 196.152344 267.761719 C 196.496094 267.859375 196.828125 267.964844 197.148438 268.070312 C 200.234375 269.117188 202.402344 270.679688 202.402344 271.871094 C 202.402344 273.15625 200.089844 274.8125 196.78125 275.894531 C 196.597656 275.953125 196.410156 276.011719 196.21875 276.0625 C 195.753906 274.636719 195.1875 273.238281 194.53125 271.882812 C 195.167969 270.546875 195.703125 269.167969 196.152344 267.761719 Z M 188.644531 261.183594 C 191.109375 259.0625 193.410156 258.230469 194.457031 258.824219 C 195.574219 259.460938 196.007812 262.03125 195.304688 265.402344 C 195.257812 265.625 195.210938 265.84375 195.152344 266.058594 C 193.679688 265.730469 192.191406 265.496094 190.691406 265.363281 C 189.832031 264.144531 188.890625 262.976562 187.867188 261.882812 C 188.128906 261.640625 188.378906 261.414062 188.644531 261.183594 Z M 186.875 262.886719 C 187.574219 263.632812 188.226562 264.417969 188.835938 265.230469 C 187.527344 265.171875 186.207031 265.171875 184.894531 265.230469 C 185.542969 264.386719 186.214844 263.601562 186.875 262.886719 Z M 179.191406 258.871094 C 180.304688 258.230469 182.773438 259.148438 185.378906 261.425781 C 185.542969 261.570312 185.710938 261.730469 185.882812 261.886719 C 184.855469 262.976562 183.90625 264.144531 183.039062 265.363281 C 181.542969 265.496094 180.058594 265.722656 178.585938 266.046875 C 178.5 265.710938 178.425781 265.371094 178.355469 265.027344 C 177.730469 261.855469 178.140625 259.46875 179.191406 258.871094 Z M 176.441406 268.109375 C 176.816406 267.976562 177.203125 267.859375 177.585938 267.746094 C 178.039062 269.167969 178.582031 270.566406 179.210938 271.914062 C 178.574219 273.285156 178.023438 274.699219 177.566406 276.140625 C 177.285156 276.0625 177.015625 275.980469 176.742188 275.886719 C 175.332031 275.449219 173.730469 274.753906 172.570312 273.84375 C 171.902344 273.382812 171.449219 272.675781 171.324219 271.882812 C 171.324219 270.683594 173.417969 269.148438 176.441406 268.109375 Z M 176.441406 268.109375 "/>
</g>
<g clip-path="url(#clip8)" clip-rule="nonzero">
<path style=" stroke:none;fill-rule:nonzero;fill:rgb(25.489807%,72.158813%,51.368713%);fill-opacity:1;" d="M 25.574219 293.207031 L 39.390625 317.175781 L 53.207031 293.207031 L 47.679688 293.207031 L 39.390625 307.585938 L 31.03125 293.207031 Z M 25.574219 293.207031 "/>
</g>
<g clip-path="url(#clip9)" clip-rule="nonzero">
<path style=" stroke:none;fill-rule:nonzero;fill:rgb(20.779419%,28.62854%,36.859131%);fill-opacity:1;" d="M 31.03125 293.207031 L 39.390625 307.65625 L 47.679688 293.207031 L 42.566406 293.207031 L 39.390625 298.761719 L 36.144531 293.207031 Z M 31.03125 293.207031 "/>
</g>
<g clip-path="url(#clip10)" clip-rule="nonzero">
<path style=" stroke:none;fill-rule:nonzero;fill:rgb(100%,100%,100%);fill-opacity:1;" d="M 347.949219 39.066406 C 347.816406 38.46875 347.277344 37.777344 346.1875 37.777344 C 345.96875 37.777344 345.722656 37.804688 345.445312 37.863281 C 344.9375 37.964844 344.507812 38.015625 344.125 38.035156 C 347.089844 32.984375 349.015625 25.972656 347.109375 23.535156 C 344.597656 20.328125 341.21875 19.847656 339.425781 19.847656 L 339.257812 19.851562 C 338.589844 19.859375 337.898438 19.941406 337.203125 20.09375 L 334.632812 20.648438 C 334.285156 20.605469 333.929688 20.574219 333.554688 20.566406 L 333.414062 20.566406 C 332.273438 20.566406 331.230469 20.808594 330.300781 21.265625 L 329.402344 20.910156 C 328.171875 20.425781 326.3125 19.84375 324.476562 19.84375 C 324.375 19.84375 324.273438 19.847656 324.167969 19.851562 C 322.359375 19.917969 320.804688 20.601562 319.675781 21.835938 C 318.261719 23.375 317.621094 25.625 317.765625 28.527344 C 317.773438 28.679688 319.53125 43.519531 324.507812 43.519531 L 324.570312 43.519531 C 325.214844 43.503906 325.832031 43.242188 326.410156 42.746094 C 326.847656 43.074219 327.417969 43.269531 327.945312 43.347656 C 328.296875 43.429688 328.925781 43.546875 329.679688 43.546875 C 330.601562 43.546875 331.433594 43.359375 332.148438 43.019531 C 332.148438 43.648438 332.144531 44.449219 332.136719 45.46875 L 332.136719 45.523438 L 332.140625 45.578125 C 332.210938 46.59375 332.386719 47.511719 332.648438 48.230469 C 333.402344 50.28125 334.707031 51.410156 336.316406 51.410156 C 336.382812 51.410156 336.449219 51.410156 336.519531 51.40625 C 337.84375 51.324219 339.183594 50.578125 340.109375 49.417969 C 341.109375 48.160156 341.339844 46.832031 341.425781 45.8125 L 341.433594 45.75 L 341.433594 42.761719 L 341.507812 42.769531 L 341.820312 42.796875 L 341.851562 42.796875 L 341.878906 42.800781 C 341.96875 42.804688 342.0625 42.804688 342.152344 42.804688 C 343.234375 42.804688 344.566406 42.523438 345.464844 42.105469 C 346.324219 41.707031 348.289062 40.613281 347.949219 39.066406 Z M 347.949219 39.066406 "/>
</g>
<path style=" stroke:none;fill-rule:nonzero;fill:rgb(0.779724%,46.669006%,74.119568%);fill-opacity:1;" d="M 340 42.085938 C 340 41.9375 340.007812 41.816406 340.011719 41.679688 C 340.003906 41.5 340 41.367188 340 41.367188 C 340 41.367188 340.007812 41.359375 340.023438 41.351562 C 340.128906 39.433594 340.65625 38.695312 341.222656 38.273438 C 341.144531 38.164062 341.054688 38.046875 340.96875 37.933594 C 340.730469 37.621094 340.429688 37.230469 340.113281 36.734375 L 340.054688 36.621094 C 340.007812 36.5 339.890625 36.300781 339.742188 36.03125 C 338.894531 34.496094 337.128906 31.304688 338.335938 29.289062 C 338.867188 28.402344 339.859375 27.894531 341.292969 27.769531 C 340.707031 26.101562 338.511719 22.082031 333.53125 22 C 333.53125 22 333.53125 22 333.527344 22 C 329.195312 21.929688 327.773438 25.867188 327.308594 28.222656 C 327.945312 27.949219 328.675781 27.785156 329.34375 27.785156 C 329.351562 27.785156 329.363281 27.785156 329.375 27.785156 C 331.015625 27.800781 332.144531 28.675781 332.472656 30.191406 C 332.714844 31.304688 332.828125 32.28125 332.828125 33.171875 C 332.820312 35.121094 332.425781 36.148438 332.078125 37.050781 L 331.96875 37.34375 C 331.878906 37.585938 331.785156 37.808594 331.699219 38.015625 C 331.605469 38.230469 331.527344 38.421875 331.46875 38.59375 C 331.816406 38.671875 332.089844 38.78125 332.277344 38.863281 L 332.382812 38.910156 C 332.417969 38.925781 332.453125 38.941406 332.484375 38.960938 C 333.089844 39.332031 333.46875 39.898438 333.550781 40.5625 C 333.59375 40.921875 333.585938 43.355469 333.574219 45.480469 C 333.636719 46.402344 333.792969 47.175781 333.996094 47.734375 C 334.292969 48.535156 335.023438 50.0625 336.433594 49.972656 C 337.414062 49.914062 338.359375 49.3125 338.984375 48.523438 C 339.660156 47.679688 339.90625 46.742188 340 45.6875 Z M 340 42.085938 "/>
<path style=" stroke:none;fill-rule:nonzero;fill:rgb(0.779724%,46.669006%,74.119568%);fill-opacity:1;" d="M 327.171875 38.4375 C 326.011719 37.230469 325.449219 35.609375 325.660156 34.09375 C 325.867188 32.636719 325.75 31.207031 325.6875 30.4375 C 325.667969 30.183594 325.652344 29.992188 325.652344 29.886719 C 325.652344 29.878906 325.65625 29.875 325.65625 29.871094 C 325.65625 29.867188 325.65625 29.863281 325.65625 29.863281 C 325.742188 27.695312 326.578125 24.277344 328.878906 22.246094 C 327.757812 21.804688 325.933594 21.222656 324.21875 21.285156 C 321.535156 21.382812 318.9375 23.238281 319.199219 28.457031 C 319.296875 30.414062 321.511719 42.15625 324.535156 42.085938 C 324.96875 42.074219 325.417969 41.796875 325.878906 41.242188 C 326.605469 40.363281 327.316406 39.566406 327.820312 39.015625 C 327.59375 38.84375 327.375 38.652344 327.171875 38.4375 Z M 342.882812 28.265625 C 342.894531 28.375 342.886719 28.46875 342.867188 28.554688 C 342.890625 29.214844 342.820312 29.855469 342.746094 30.476562 C 342.695312 30.933594 342.640625 31.402344 342.625 31.875 C 342.609375 32.339844 342.675781 32.796875 342.742188 33.28125 C 342.90625 34.410156 343.074219 35.6875 342.195312 37.179688 C 342.355469 37.390625 342.5 37.589844 342.613281 37.78125 C 345.917969 32.417969 347.25 26.042969 345.980469 24.421875 C 344.054688 21.960938 341.390625 21.25 339.28125 21.285156 C 338.621094 21.296875 338.019531 21.382812 337.507812 21.496094 C 341.148438 23.257812 342.769531 27.039062 342.882812 28.265625 Z M 345.738281 39.265625 C 343.824219 39.660156 342.90625 39.449219 342.460938 39.175781 C 342.386719 39.226562 342.316406 39.269531 342.25 39.3125 C 341.984375 39.472656 341.558594 39.730469 341.457031 41.308594 C 341.515625 41.320312 341.570312 41.324219 341.632812 41.339844 L 341.945312 41.367188 C 342.890625 41.410156 344.132812 41.144531 344.859375 40.808594 C 346.425781 40.078125 347.28125 38.949219 345.738281 39.265625 Z M 332.125 40.734375 C 332.097656 40.519531 331.984375 40.347656 331.773438 40.210938 L 331.695312 40.175781 C 331.4375 40.0625 331.144531 39.933594 330.675781 39.933594 L 330.671875 39.933594 C 330.582031 39.941406 330.492188 39.945312 330.398438 39.945312 C 330.363281 39.945312 330.324219 39.941406 330.289062 39.941406 C 329.949219 40.203125 329.464844 40.402344 328.269531 40.648438 C 326.132812 41.195312 327.394531 41.835938 328.210938 41.9375 C 329.003906 42.136719 330.890625 42.375 332.144531 41.355469 C 332.140625 41.035156 332.132812 40.8125 332.125 40.734375 Z M 332.125 40.734375 "/>
<path style=" stroke:none;fill-rule:nonzero;fill:rgb(0.779724%,46.669006%,74.119568%);fill-opacity:1;" d="M 331.164062 30.96875 C 330.953125 31.183594 330.625 31.375 330.257812 31.316406 C 329.664062 31.21875 329.207031 30.503906 329.242188 30.234375 C 329.273438 29.964844 329.78125 29.824219 330.375 29.921875 C 330.578125 29.953125 330.765625 30.011719 330.925781 30.085938 C 330.695312 29.589844 330.28125 29.304688 329.644531 29.238281 C 328.523438 29.113281 327.332031 29.699219 327.09375 30.023438 C 327.097656 30.101562 327.105469 30.203125 327.117188 30.324219 C 327.183594 31.144531 327.304688 32.679688 327.082031 34.292969 C 326.929688 35.359375 327.363281 36.566406 328.203125 37.445312 C 328.746094 38.011719 329.382812 38.371094 330.007812 38.476562 C 330.085938 38.136719 330.230469 37.800781 330.375 37.457031 C 330.457031 37.265625 330.542969 37.0625 330.625 36.84375 L 330.738281 36.539062 C 331.058594 35.710938 331.386719 34.851562 331.390625 33.164062 C 331.394531 32.515625 331.316406 31.773438 331.164062 30.96875 Z M 341.324219 33.480469 C 341.25 32.960938 341.171875 32.417969 341.191406 31.832031 C 341.207031 31.296875 341.265625 30.796875 341.324219 30.3125 C 341.367188 29.929688 341.402344 29.5625 341.421875 29.199219 C 340.496094 29.277344 339.882812 29.542969 339.59375 29.992188 C 339.710938 29.953125 339.847656 29.921875 340 29.902344 C 340.640625 29.816406 341.105469 30.003906 341.160156 30.359375 C 341.199219 30.617188 340.980469 30.863281 340.882812 30.957031 C 340.683594 31.152344 340.433594 31.273438 340.179688 31.308594 C 340.132812 31.3125 340.085938 31.316406 340.039062 31.316406 C 339.789062 31.316406 339.546875 31.230469 339.359375 31.101562 C 339.441406 32.515625 340.484375 34.410156 340.996094 35.335938 C 341.105469 35.535156 341.191406 35.695312 341.261719 35.832031 C 341.542969 35.027344 341.441406 34.296875 341.324219 33.480469 Z M 341.324219 33.480469 "/>
<g clip-path="url(#clip11)" clip-rule="nonzero">
<path style=" stroke:none;fill-rule:nonzero;fill:rgb(0%,0%,0%);fill-opacity:1;" d="M 480.761719 253.265625 C 469.324219 253.265625 460.050781 262.527344 460.050781 273.9375 C 460.050781 283.070312 465.988281 290.824219 474.214844 293.5625 C 475.246094 293.75 475.980469 292.691406 475.980469 291.894531 C 475.980469 291.410156 475.992188 290.824219 475.980469 289.105469 C 470.21875 290.351562 468.414062 286.320312 468.414062 286.320312 C 467.46875 283.929688 466.324219 283.246094 466.324219 283.246094 C 464.445312 281.964844 466.460938 282 466.460938 282 C 468.539062 282.136719 469.609375 283.929688 469.609375 283.929688 C 471.203125 286.71875 474.800781 286.445312 475.980469 285.921875 C 475.980469 284.652344 476.117188 283.730469 476.464844 283.144531 C 469.957031 282 466.410156 278.242188 466.425781 273.042969 C 466.4375 269.96875 467.496094 267.578125 469.210938 265.8125 C 468.464844 264.867188 467.953125 261.628906 469.484375 259.640625 C 473.332031 259.640625 475.621094 262.414062 475.621094 262.414062 C 475.621094 262.414062 477.425781 261.628906 480.746094 261.628906 C 484.082031 261.628906 485.875 262.375 485.875 262.375 C 485.875 262.375 488.175781 259.640625 492.023438 259.640625 C 493.554688 261.628906 493.042969 264.867188 492.445312 265.75 C 494.089844 267.480469 495.097656 269.867188 495.097656 273.042969 C 495.097656 278.242188 491.5625 282 485.066406 283.132812 C 485.476562 283.757812 485.539062 284.628906 485.539062 285.921875 C 485.539062 288.683594 485.539062 291.210938 485.539062 291.894531 C 485.539062 292.691406 486.261719 293.761719 487.316406 293.5625 C 495.542969 290.8125 501.46875 283.070312 501.46875 273.9375 C 501.46875 262.527344 492.195312 253.265625 480.761719 253.265625 Z M 480.761719 253.265625 "/>
</g>
<g clip-path="url(#clip12)" clip-rule="nonzero">
<path style=" stroke:none;fill-rule:nonzero;fill:rgb(87.059021%,29.798889%,21.179199%);fill-opacity:1;" d="M 348.46875 655.273438 L 334.378906 641.1875 C 333.570312 640.375 332.253906 640.375 331.441406 641.1875 L 328.515625 644.113281 L 332.226562 647.824219 C 333.089844 647.53125 334.078125 647.726562 334.765625 648.414062 C 335.457031 649.105469 335.648438 650.105469 335.351562 650.96875 L 338.929688 654.546875 C 339.792969 654.25 340.792969 654.441406 341.484375 655.132812 C 342.449219 656.097656 342.449219 657.664062 341.484375 658.628906 C 340.515625 659.597656 338.953125 659.597656 337.984375 658.628906 C 337.257812 657.902344 337.078125 656.835938 337.449219 655.941406 L 334.113281 652.605469 L 334.109375 661.382812 C 334.347656 661.5 334.566406 661.65625 334.765625 661.851562 C 335.730469 662.816406 335.730469 664.382812 334.765625 665.347656 C 333.800781 666.316406 332.230469 666.316406 331.269531 665.347656 C 330.300781 664.382812 330.300781 662.816406 331.269531 661.851562 C 331.507812 661.613281 331.78125 661.433594 332.078125 661.3125 L 332.078125 652.453125 C 331.78125 652.332031 331.507812 652.152344 331.269531 651.910156 C 330.535156 651.179688 330.359375 650.105469 330.734375 649.207031 L 327.078125 645.550781 L 317.414062 655.210938 C 316.601562 656.023438 316.601562 657.339844 317.414062 658.148438 L 331.503906 672.238281 C 332.316406 673.050781 333.632812 673.050781 334.445312 672.238281 L 348.46875 658.214844 C 349.28125 657.402344 349.28125 656.085938 348.46875 655.273438 "/>
</g>
<g clip-path="url(#clip13)" clip-rule="nonzero">
<path style=" stroke:none;fill-rule:nonzero;fill:rgb(89.408875%,30.198669%,14.898682%);fill-opacity:1;" d="M 322.425781 877.871094 L 320.246094 852.859375 L 344.191406 852.859375 L 342.011719 877.867188 L 332.203125 880.648438 Z M 322.425781 877.871094 "/>
</g>
<path style=" stroke:none;fill-rule:nonzero;fill:rgb(94.509888%,39.608765%,16.079712%);fill-opacity:1;" d="M 332.21875 878.523438 L 340.144531 876.273438 L 342.007812 854.902344 L 332.21875 854.902344 Z M 332.21875 878.523438 "/>
<path style=" stroke:none;fill-rule:nonzero;fill:rgb(92.158508%,92.158508%,92.158508%);fill-opacity:1;" d="M 332.21875 864.179688 L 328.253906 864.179688 L 327.976562 861.039062 L 332.21875 861.039062 L 332.21875 857.972656 L 324.703125 857.972656 L 324.773438 858.792969 L 325.511719 867.246094 L 332.21875 867.246094 Z M 332.21875 872.148438 L 332.207031 872.148438 L 328.867188 871.226562 L 328.652344 868.78125 L 325.644531 868.78125 L 326.066406 873.597656 L 332.207031 875.339844 L 332.21875 875.335938 Z M 332.21875 872.148438 "/>
<path style=" stroke:none;fill-rule:nonzero;fill:rgb(100%,100%,100%);fill-opacity:1;" d="M 332.207031 864.179688 L 332.207031 867.246094 L 335.898438 867.246094 L 335.550781 871.226562 L 332.207031 872.148438 L 332.207031 875.339844 L 338.351562 873.597656 L 338.398438 873.078125 L 339.101562 865.003906 L 339.175781 864.179688 Z M 332.207031 857.972656 L 332.207031 861.039062 L 339.449219 861.039062 L 339.507812 860.347656 L 339.644531 858.792969 L 339.71875 857.96875 Z M 332.207031 857.972656 "/>
<g clip-path="url(#clip14)" clip-rule="nonzero">
<path style=" stroke:none;fill-rule:nonzero;fill:rgb(54.899597%,75.289917%,24.308777%);fill-opacity:1;" d="M 329.917969 461.300781 C 329.105469 461.765625 328.949219 461.820312 328.1875 462.085938 C 328.003906 462.148438 327.722656 462.261719 328.292969 462.582031 L 332.117188 464.84375 C 332.484375 465.054688 332.90625 465.167969 333.320312 465.167969 L 333.324219 465.167969 C 333.742188 465.167969 334.160156 465.058594 334.523438 464.847656 L 345.976562 458.242188 C 346.71875 457.808594 347.179688 457.007812 347.179688 456.15625 L 347.179688 442.953125 C 347.179688 442.09375 346.71875 441.292969 345.976562 440.867188 L 334.523438 434.257812 C 333.804688 433.847656 332.84375 433.847656 332.117188 434.257812 L 320.679688 440.859375 C 319.9375 441.289062 319.480469 442.09375 319.480469 442.949219 L 319.480469 456.148438 C 319.480469 457.007812 319.9375 457.808594 320.679688 458.234375 L 323.679688 459.964844 C 325.132812 460.683594 325.652344 460.683594 326.316406 460.683594 C 328.464844 460.683594 329.707031 459.382812 329.707031 457.117188 L 329.707031 444.078125 C 329.707031 443.890625 329.550781 443.75 329.371094 443.75 L 327.921875 443.75 C 327.734375 443.75 327.585938 443.890625 327.585938 444.078125 L 327.585938 457.109375 C 327.585938 458.117188 326.542969 459.117188 324.839844 458.269531 L 321.703125 456.457031 C 321.59375 456.402344 321.523438 456.28125 321.523438 456.15625 L 321.523438 442.953125 C 321.523438 442.824219 321.59375 442.699219 321.703125 442.636719 L 333.140625 436.035156 C 333.246094 435.972656 333.390625 435.972656 333.496094 436.035156 L 344.9375 442.632812 C 345.050781 442.699219 345.117188 442.816406 345.117188 442.949219 L 345.117188 456.15625 C 345.117188 456.277344 345.050781 456.402344 344.945312 456.464844 L 333.496094 463.066406 C 333.394531 463.128906 333.246094 463.128906 333.140625 463.066406 L 330.203125 461.328125 C 330.117188 461.273438 330.003906 461.253906 329.917969 461.300781 Z M 329.917969 461.300781 "/>
</g>
<path style=" stroke:none;fill-rule:nonzero;fill:rgb(54.899597%,75.289917%,24.308777%);fill-opacity:1;" d="M 336.855469 454.070312 C 333.824219 454.070312 333.160156 453.308594 332.9375 451.804688 C 332.914062 451.644531 332.777344 451.527344 332.609375 451.527344 L 331.128906 451.527344 C 330.941406 451.527344 330.800781 451.675781 330.800781 451.855469 C 330.800781 453.78125 331.847656 456.078125 336.863281 456.078125 C 340.480469 456.074219 342.566406 454.644531 342.566406 452.152344 L 342.5625 452.152344 C 342.5625 449.683594 340.886719 449.023438 337.375 448.5625 C 333.816406 448.089844 333.457031 447.847656 333.457031 447.019531 C 333.457031 446.332031 333.761719 445.414062 336.394531 445.414062 C 338.746094 445.414062 339.613281 445.921875 339.972656 447.507812 C 340.003906 447.65625 340.140625 447.765625 340.292969 447.765625 L 341.78125 447.765625 C 341.875 447.765625 341.960938 447.730469 342.023438 447.660156 C 342.085938 447.59375 342.117188 447.5 342.109375 447.40625 C 341.882812 444.675781 340.066406 443.40625 336.394531 443.40625 C 333.128906 443.40625 331.179688 444.785156 331.179688 447.09375 C 331.179688 449.59375 333.121094 450.289062 336.253906 450.597656 C 340.003906 450.964844 340.292969 451.515625 340.292969 452.253906 C 340.296875 453.527344 339.265625 454.070312 336.855469 454.070312 Z M 336.855469 454.070312 "/>
<path style=" stroke:none;fill-rule:nonzero;fill:rgb(1.568604%,2.349854%,2.349854%);fill-opacity:1;" d="M 328.148438 236.472656 L 327.570312 237.804688 L 328.757812 237.804688 L 328.214844 236.472656 L 328.148438 236.472656 "/>
<g clip-path="url(#clip15)" clip-rule="nonzero">
<path style=" stroke:none;fill-rule:nonzero;fill:rgb(1.568604%,2.349854%,2.349854%);fill-opacity:1;" d="M 344.414062 251.425781 C 344.414062 251.714844 344.175781 251.953125 343.875 251.953125 C 343.582031 251.953125 343.339844 251.714844 343.339844 251.425781 C 343.339844 251.132812 343.582031 250.898438 343.875 250.898438 C 344.175781 250.898438 344.414062 251.132812 344.414062 251.425781 Z M 340.238281 235.972656 C 340.238281 236.105469 340.136719 236.207031 340.003906 236.207031 L 339.355469 236.207031 L 339.355469 238.601562 L 340.003906 238.601562 C 340.136719 238.601562 340.238281 238.703125 340.238281 238.835938 L 340.238281 239.5 C 340.238281 239.636719 340.136719 239.734375 340.003906 239.734375 L 337.222656 239.734375 C 337.085938 239.734375 336.984375 239.636719 336.984375 239.5 L 336.984375 238.835938 C 336.984375 238.703125 337.085938 238.601562 337.222656 238.601562 L 337.867188 238.601562 L 337.867188 236.207031 L 337.222656 236.207031 C 337.085938 236.207031 336.984375 236.105469 336.984375 235.972656 L 336.984375 235.308594 C 336.984375 235.171875 337.085938 235.074219 337.222656 235.074219 L 340.003906 235.074219 C 340.136719 235.074219 340.238281 235.171875 340.238281 235.308594 Z M 339.9375 245.898438 C 339.9375 246.1875 339.695312 246.425781 339.398438 246.425781 C 339.101562 246.425781 338.859375 246.1875 338.859375 245.898438 C 338.859375 245.605469 339.101562 245.367188 339.398438 245.367188 C 339.695312 245.367188 339.9375 245.605469 339.9375 245.898438 Z M 338.292969 251.144531 C 338.292969 251.4375 338.050781 251.675781 337.753906 251.675781 C 337.457031 251.675781 337.21875 251.4375 337.21875 251.144531 C 337.21875 250.855469 337.457031 250.617188 337.753906 250.617188 C 338.050781 250.617188 338.292969 250.855469 338.292969 251.144531 Z M 334.238281 238.46875 L 333.121094 238.46875 L 333.121094 239.5 C 333.121094 239.636719 333.015625 239.734375 332.882812 239.734375 L 331.863281 239.734375 C 331.726562 239.734375 331.628906 239.636719 331.628906 239.5 L 331.628906 235.308594 C 331.628906 235.171875 331.726562 235.074219 331.863281 235.074219 L 334.238281 235.074219 C 335.832031 235.074219 336.578125 235.808594 336.578125 236.769531 C 336.578125 237.738281 335.832031 238.46875 334.238281 238.46875 Z M 333.355469 244.742188 C 333.355469 245.035156 333.113281 245.269531 332.816406 245.269531 C 332.519531 245.269531 332.28125 245.035156 332.28125 244.742188 C 332.28125 244.453125 332.519531 244.214844 332.816406 244.214844 C 333.113281 244.214844 333.355469 244.453125 333.355469 244.742188 Z M 334.957031 253.136719 C 334.957031 253.425781 334.714844 253.664062 334.417969 253.664062 C 334.125 253.664062 333.882812 253.425781 333.882812 253.136719 C 333.882812 252.84375 334.125 252.605469 334.417969 252.605469 C 334.714844 252.605469 334.957031 252.84375 334.957031 253.136719 Z M 333.355469 249.871094 C 333.355469 250.164062 333.113281 250.402344 332.816406 250.402344 C 332.519531 250.402344 332.28125 250.164062 332.28125 249.871094 C 332.28125 249.582031 332.519531 249.347656 332.816406 249.347656 C 333.113281 249.347656 333.355469 249.582031 333.355469 249.871094 Z M 331.722656 253.136719 C 331.722656 253.425781 331.480469 253.664062 331.183594 253.664062 C 330.886719 253.664062 330.644531 253.425781 330.644531 253.136719 C 330.644531 252.84375 330.886719 252.605469 331.183594 252.605469 C 331.480469 252.605469 331.722656 252.84375 331.722656 253.136719 Z M 330.929688 239.734375 L 329.777344 239.734375 C 329.640625 239.734375 329.523438 239.636719 329.46875 239.5 L 329.234375 238.902344 L 327.097656 238.902344 L 326.859375 239.5 C 326.808594 239.636719 326.691406 239.734375 326.554688 239.734375 L 325.46875 239.734375 C 325.335938 239.734375 325.238281 239.636719 325.300781 239.5 L 327.199219 235.308594 C 327.261719 235.171875 327.367188 235.074219 327.503906 235.074219 L 328.894531 235.074219 C 329.03125 235.074219 329.140625 235.167969 329.199219 235.300781 L 331.101562 239.5 C 331.160156 239.636719 331.066406 239.734375 330.929688 239.734375 Z M 328.4375 244.742188 C 328.4375 245.035156 328.191406 245.269531 327.898438 245.269531 C 327.601562 245.269531 327.359375 245.035156 327.359375 244.742188 C 327.359375 244.453125 327.601562 244.214844 327.898438 244.214844 C 328.191406 244.214844 328.4375 244.453125 328.4375 244.742188 Z M 328.507812 251.703125 C 328.507812 251.996094 328.265625 252.230469 327.96875 252.230469 C 327.671875 252.230469 327.433594 251.996094 327.433594 251.703125 C 327.433594 251.410156 327.671875 251.175781 327.96875 251.175781 C 328.265625 251.175781 328.507812 251.410156 328.507812 251.703125 Z M 325.191406 253.136719 C 325.191406 253.425781 324.949219 253.664062 324.652344 253.664062 C 324.355469 253.664062 324.117188 253.425781 324.117188 253.136719 C 324.117188 252.84375 324.355469 252.605469 324.652344 252.605469 C 324.949219 252.605469 325.191406 252.84375 325.191406 253.136719 Z M 341.421875 243.121094 C 344.539062 243.121094 347.074219 240.632812 347.074219 237.574219 C 347.074219 234.820312 345.019531 232.527344 342.339844 232.097656 C 341.855469 228.972656 339.097656 226.570312 335.78125 226.570312 C 333.484375 226.570312 331.40625 227.722656 330.207031 229.554688 C 329.746094 229.429688 329.269531 229.367188 328.789062 229.367188 C 326.121094 229.367188 323.902344 231.304688 323.519531 233.816406 C 323.488281 233.816406 323.453125 233.816406 323.421875 233.816406 C 320.808594 233.816406 318.683594 235.902344 318.683594 238.46875 C 318.683594 241.035156 320.808594 243.121094 323.421875 243.121094 L 326.050781 243.121094 L 326.050781 249.511719 L 324.453125 251.085938 L 324.453125 252.230469 C 324.027344 252.320312 323.710938 252.691406 323.710938 253.136719 C 323.710938 253.644531 324.132812 254.058594 324.652344 254.058594 C 325.175781 254.058594 325.597656 253.644531 325.597656 253.136719 C 325.597656 252.691406 325.28125 252.320312 324.855469 252.230469 L 324.855469 251.25 L 326.457031 249.675781 L 326.457031 243.121094 L 327.695312 243.121094 L 327.695312 243.839844 C 327.273438 243.929688 326.953125 244.300781 326.953125 244.742188 C 326.953125 245.253906 327.378906 245.667969 327.898438 245.667969 C 328.417969 245.667969 328.839844 245.253906 328.839844 244.742188 C 328.839844 244.300781 328.523438 243.929688 328.101562 243.839844 L 328.101562 243.121094 L 329.339844 243.121094 L 329.339844 245.8125 L 327.765625 247.355469 L 327.765625 250.800781 C 327.34375 250.890625 327.027344 251.261719 327.027344 251.703125 C 327.027344 252.214844 327.449219 252.628906 327.96875 252.628906 C 328.488281 252.628906 328.914062 252.214844 328.914062 251.703125 C 328.914062 251.261719 328.59375 250.890625 328.171875 250.800781 L 328.171875 247.519531 L 329.742188 245.980469 L 329.742188 243.121094 L 330.980469 243.121094 L 330.980469 252.230469 C 330.558594 252.320312 330.242188 252.691406 330.242188 253.136719 C 330.242188 253.644531 330.664062 254.058594 331.183594 254.058594 C 331.703125 254.058594 332.128906 253.644531 332.128906 253.136719 C 332.128906 252.691406 331.808594 252.320312 331.386719 252.230469 L 331.386719 243.121094 L 332.625 243.121094 L 332.625 243.835938 C 332.195312 243.925781 331.875 244.296875 331.875 244.742188 C 331.875 245.253906 332.296875 245.667969 332.816406 245.667969 C 333.335938 245.667969 333.761719 245.253906 333.761719 244.742188 C 333.761719 244.304688 333.449219 243.933594 333.03125 243.839844 L 333.03125 243.121094 L 334.265625 243.121094 L 334.265625 246.410156 L 332.613281 248.03125 L 332.613281 248.96875 C 332.191406 249.0625 331.875 249.429688 331.875 249.871094 C 331.875 250.382812 332.296875 250.800781 332.816406 250.800781 C 333.335938 250.800781 333.761719 250.382812 333.761719 249.871094 C 333.761719 249.429688 333.441406 249.0625 333.019531 248.96875 L 333.019531 248.195312 L 334.671875 246.574219 L 334.671875 243.121094 L 335.910156 243.121094 L 335.910156 248.320312 L 334.214844 249.980469 L 334.214844 252.230469 C 333.792969 252.320312 333.476562 252.691406 333.476562 253.136719 C 333.476562 253.644531 333.898438 254.058594 334.417969 254.058594 C 334.941406 254.058594 335.363281 253.644531 335.363281 253.136719 C 335.363281 252.691406 335.042969 252.320312 334.621094 252.230469 L 334.621094 250.148438 L 336.316406 248.484375 L 336.316406 243.121094 L 337.550781 243.121094 L 337.550781 250.242188 C 337.128906 250.332031 336.8125 250.703125 336.8125 251.144531 C 336.8125 251.65625 337.234375 252.070312 337.753906 252.070312 C 338.277344 252.070312 338.699219 251.65625 338.699219 251.144531 C 338.699219 250.703125 338.378906 250.332031 337.957031 250.242188 L 337.957031 243.121094 L 339.195312 243.121094 L 339.195312 244.992188 C 338.773438 245.082031 338.453125 245.453125 338.453125 245.898438 C 338.453125 246.40625 338.878906 246.820312 339.398438 246.820312 C 339.917969 246.820312 340.339844 246.40625 340.339844 245.898438 C 340.339844 245.453125 340.023438 245.082031 339.601562 244.992188 L 339.601562 243.121094 L 340.839844 243.121094 L 340.839844 245.980469 L 343.675781 248.761719 L 343.675781 250.519531 C 343.25 250.609375 342.933594 250.984375 342.933594 251.425781 C 342.933594 251.933594 343.355469 252.351562 343.875 252.351562 C 344.398438 252.351562 344.820312 251.933594 344.820312 251.425781 C 344.820312 250.984375 344.503906 250.609375 344.078125 250.519531 L 344.078125 248.597656 L 341.242188 245.8125 L 341.242188 243.121094 L 341.421875 243.121094 "/>
</g>
<path style=" stroke:none;fill-rule:nonzero;fill:rgb(1.568604%,2.349854%,2.349854%);fill-opacity:1;" d="M 334.238281 236.140625 L 333.121094 236.140625 L 333.121094 237.40625 L 334.238281 237.40625 C 334.746094 237.40625 335.015625 237.136719 335.015625 236.769531 C 335.015625 236.40625 334.746094 236.140625 334.238281 236.140625 "/>
<g clip-path="url(#clip16)" clip-rule="nonzero">
<path style=" stroke:none;fill-rule:nonzero;fill:rgb(71.759033%,10.978699%,10.978699%);fill-opacity:1;" d="M 493.847656 65.664062 C 493.847656 65.253906 492.738281 64.917969 491.367188 64.917969 C 490.175781 64.917969 489.183594 65.171875 488.945312 65.507812 C 486.582031 64.414062 484.222656 63.320312 481.863281 62.226562 C 481.042969 61.84375 480.105469 61.847656 479.285156 62.234375 C 476.773438 63.421875 474.257812 64.605469 471.746094 65.792969 C 471.179688 65.710938 470.492188 65.664062 469.75 65.664062 C 467.792969 65.664062 466.207031 65.996094 466.207031 66.40625 L 466.207031 68.640625 C 466.207031 68.664062 466.230469 68.683594 466.238281 68.703125 C 466.140625 69.0625 466.285156 69.480469 466.664062 69.65625 C 470.375 71.378906 474.089844 73.097656 477.800781 74.816406 C 478.742188 75.253906 479.820312 75.25 480.757812 74.808594 C 485 72.804688 489.238281 70.804688 493.480469 68.804688 C 493.796875 68.652344 493.90625 68.296875 493.8125 68 C 493.828125 67.964844 493.847656 67.933594 493.847656 67.894531 Z M 493.847656 65.664062 "/>
</g>
<g clip-path="url(#clip17)" clip-rule="nonzero">
<path style=" stroke:none;fill-rule:nonzero;fill:rgb(89.7995%,22.349548%,20.779419%);fill-opacity:1;" d="M 477.800781 72.015625 C 474.089844 70.386719 470.375 68.761719 466.664062 67.132812 C 466.058594 66.867188 466.054688 66.019531 466.660156 65.746094 C 470.867188 63.867188 475.078125 61.988281 479.285156 60.109375 C 480.101562 59.742188 481.042969 59.738281 481.863281 60.097656 C 485.734375 61.796875 489.605469 63.492188 493.476562 65.191406 C 493.972656 65.410156 493.972656 66.105469 493.480469 66.324219 C 489.238281 68.21875 485 70.113281 480.757812 72.007812 C 479.820312 72.425781 478.742188 72.429688 477.800781 72.015625 Z M 477.800781 72.015625 "/>
</g>
<g clip-path="url(#clip18)" clip-rule="nonzero">
<path style=" stroke:none;fill-rule:nonzero;fill:rgb(71.759033%,10.978699%,10.978699%);fill-opacity:1;" d="M 493.847656 60.730469 C 493.847656 60.320312 492.738281 59.988281 491.367188 59.988281 C 490.175781 59.988281 489.183594 60.238281 488.945312 60.574219 C 486.582031 59.480469 484.222656 58.386719 481.863281 57.292969 C 481.042969 56.914062 480.105469 56.917969 479.285156 57.300781 C 476.773438 58.488281 474.257812 59.675781 471.746094 60.859375 C 471.179688 60.777344 470.492188 60.730469 469.75 60.730469 C 467.792969 60.730469 466.207031 61.066406 466.207031 61.476562 L 466.207031 63.710938 C 466.207031 63.730469 466.230469 63.75 466.238281 63.769531 C 466.140625 64.128906 466.285156 64.550781 466.664062 64.726562 C 470.375 66.445312 474.089844 68.164062 477.800781 69.886719 C 478.742188 70.324219 479.820312 70.320312 480.757812 69.875 C 485 67.875 489.238281 65.875 493.480469 63.871094 C 493.796875 63.722656 493.90625 63.363281 493.8125 63.066406 C 493.828125 63.035156 493.847656 63 493.847656 62.964844 Z M 493.847656 60.730469 "/>
</g>
<g clip-path="url(#clip19)" clip-rule="nonzero">
<path style=" stroke:none;fill-rule:nonzero;fill:rgb(89.7995%,22.349548%,20.779419%);fill-opacity:1;" d="M 477.800781 67.085938 C 474.089844 65.457031 470.375 63.828125 466.664062 62.199219 C 466.058594 61.933594 466.054688 61.085938 466.660156 60.816406 C 470.867188 58.933594 475.078125 57.054688 479.285156 55.175781 C 480.101562 54.808594 481.042969 54.804688 481.863281 55.167969 C 485.734375 56.863281 489.605469 58.5625 493.476562 60.257812 C 493.972656 60.476562 493.972656 61.171875 493.480469 61.390625 C 489.238281 63.285156 485 65.179688 480.757812 67.074219 C 479.820312 67.492188 478.742188 67.496094 477.800781 67.085938 Z M 477.800781 67.085938 "/>
</g>
<g clip-path="url(#clip20)" clip-rule="nonzero">
<path style=" stroke:none;fill-rule:nonzero;fill:rgb(71.759033%,10.978699%,10.978699%);fill-opacity:1;" d="M 493.847656 55.800781 C 493.847656 55.386719 492.738281 55.054688 491.367188 55.054688 C 490.175781 55.054688 489.183594 55.308594 488.945312 55.644531 C 486.582031 54.550781 484.222656 53.457031 481.863281 52.363281 C 481.042969 51.980469 480.105469 51.984375 479.285156 52.371094 C 476.773438 53.554688 474.257812 54.742188 471.746094 55.929688 C 471.179688 55.847656 470.492188 55.796875 469.75 55.796875 C 467.792969 55.800781 466.207031 56.132812 466.207031 56.542969 L 466.207031 58.777344 C 466.207031 58.796875 466.230469 58.816406 466.238281 58.839844 C 466.140625 59.195312 466.285156 59.617188 466.664062 59.792969 C 470.375 61.511719 474.089844 63.234375 477.800781 64.953125 C 478.742188 65.390625 479.820312 65.386719 480.757812 64.941406 C 485 62.941406 489.238281 60.941406 493.480469 58.941406 C 493.796875 58.789062 493.90625 58.433594 493.8125 58.136719 C 493.828125 58.101562 493.847656 58.066406 493.847656 58.03125 Z M 493.847656 55.800781 "/>
</g>
<g clip-path="url(#clip21)" clip-rule="nonzero">
<path style=" stroke:none;fill-rule:nonzero;fill:rgb(89.7995%,22.349548%,20.779419%);fill-opacity:1;" d="M 477.800781 62.152344 C 474.089844 60.523438 470.375 58.894531 466.664062 57.269531 C 466.058594 57.003906 466.054688 56.152344 466.660156 55.882812 C 470.867188 54.003906 475.078125 52.125 479.285156 50.242188 C 480.101562 49.878906 481.042969 49.875 481.863281 50.234375 C 485.734375 51.933594 489.605469 53.628906 493.476562 55.328125 C 493.972656 55.542969 493.972656 56.238281 493.480469 56.460938 C 489.238281 58.355469 485 60.25 480.757812 62.140625 C 479.820312 62.5625 478.742188 62.566406 477.800781 62.152344 Z M 477.800781 62.152344 "/>
</g>
<path style=" stroke:none;fill-rule:nonzero;fill:rgb(100%,100%,100%);fill-opacity:1;" d="M 476.570312 56.253906 C 476.570312 56.925781 474.753906 57.582031 473.21875 57.601562 C 471.628906 57.621094 469.75 56.960938 469.742188 56.277344 C 469.738281 55.59375 471.613281 54.882812 473.238281 54.898438 C 474.773438 54.914062 476.574219 55.585938 476.570312 56.253906 Z M 476.570312 56.253906 "/>
<path style=" stroke:none;fill-rule:nonzero;fill:rgb(100%,100%,100%);fill-opacity:1;" d="M 475.445312 58.664062 C 477.019531 59.320312 478.59375 59.984375 480.171875 60.640625 C 480.863281 59.636719 481.558594 58.628906 482.25 57.621094 C 479.980469 57.96875 477.714844 58.316406 475.445312 58.664062 Z M 475.445312 58.664062 "/>
<path style=" stroke:none;fill-rule:nonzero;fill:rgb(100%,100%,100%);fill-opacity:1;" d="M 478.621094 53.050781 C 477.894531 53.308594 477.167969 53.566406 476.445312 53.824219 C 477.4375 53.910156 478.429688 53.996094 479.421875 54.078125 C 479.738281 54.59375 480.050781 55.109375 480.367188 55.621094 C 480.5625 55.15625 480.757812 54.6875 480.949219 54.222656 C 481.796875 54.15625 482.644531 54.09375 483.488281 54.027344 C 482.832031 53.757812 482.175781 53.488281 481.519531 53.214844 C 481.6875 52.824219 481.855469 52.429688 482.023438 52.039062 C 481.382812 52.226562 480.746094 52.414062 480.109375 52.597656 C 479.402344 52.328125 478.699219 52.054688 477.996094 51.78125 C 478.203125 52.207031 478.410156 52.628906 478.621094 53.050781 Z M 478.621094 53.050781 "/>
<path style=" stroke:none;fill-rule:nonzero;fill:rgb(71.759033%,10.978699%,10.978699%);fill-opacity:1;" d="M 482.179688 56.175781 C 483.671875 55.589844 485.167969 55.003906 486.660156 54.421875 C 487.953125 54.960938 489.246094 55.496094 490.535156 56.035156 C 489.085938 56.601562 487.636719 57.167969 486.1875 57.734375 C 484.851562 57.214844 483.515625 56.695312 482.179688 56.175781 Z M 482.179688 56.175781 "/>
<path style=" stroke:none;fill-rule:nonzero;fill:rgb(62.748718%,10.978699%,10.978699%);fill-opacity:1;" d="M 486.664062 54.460938 C 486.660156 55.492188 486.65625 56.519531 486.652344 57.550781 C 487.949219 57.046875 489.242188 56.542969 490.535156 56.035156 C 489.246094 55.511719 487.953125 54.984375 486.664062 54.460938 Z M 486.664062 54.460938 "/>
<g clip-path="url(#clip22)" clip-rule="nonzero">
<path style=" stroke:none;fill-rule:nonzero;fill:rgb(100%,83.918762%,0%);fill-opacity:1;" d="M 175.246094 468.105469 L 198.875 468.105469 L 198.875 491.734375 L 175.246094 491.734375 Z M 175.246094 468.105469 "/>
</g>
<path style=" stroke:none;fill-rule:nonzero;fill:rgb(0%,0%,0.389099%);fill-opacity:1;" d="M 190.695312 485.792969 C 191.148438 486.53125 191.644531 487.238281 192.6875 487.238281 C 193.566406 487.238281 194.027344 486.800781 194.027344 486.199219 C 194.027344 485.476562 193.550781 485.21875 192.585938 484.796875 L 192.054688 484.570312 C 190.527344 483.921875 189.507812 483.109375 189.507812 481.394531 C 189.507812 479.8125 190.722656 478.609375 192.613281 478.609375 C 193.960938 478.609375 194.929688 479.074219 195.628906 480.296875 L 193.976562 481.351562 C 193.613281 480.703125 193.222656 480.449219 192.613281 480.449219 C 191.992188 480.449219 191.597656 480.839844 191.597656 481.351562 C 191.597656 481.984375 191.992188 482.242188 192.902344 482.632812 L 193.433594 482.859375 C 195.234375 483.625 196.25 484.410156 196.25 486.171875 C 196.25 488.070312 194.75 489.109375 192.738281 489.109375 C 190.769531 489.109375 189.652344 488.121094 189.027344 486.898438 Z M 183.089844 485.847656 C 183.421875 486.441406 183.925781 486.898438 184.652344 486.898438 C 185.347656 486.898438 185.746094 486.625 185.746094 485.558594 L 185.746094 478.605469 L 187.933594 478.605469 L 187.933594 485.894531 C 187.933594 488.105469 186.652344 489.109375 184.78125 489.109375 C 183.089844 489.109375 181.867188 487.964844 181.371094 486.898438 Z M 183.089844 485.847656 "/>
<path style=" stroke:none;fill-rule:nonzero;fill:rgb(14.509583%,13.729858%,13.328552%);fill-opacity:1;" d="M 21.484375 49.65625 C 21.960938 46.757812 23.046875 44.050781 24.097656 41.328125 C 24.75 39.636719 25.636719 38.054688 26.445312 36.433594 C 27.386719 34.554688 27.953125 32.605469 27.925781 30.472656 C 27.898438 28.402344 28.082031 26.332031 28.679688 24.328125 C 28.777344 23.996094 28.898438 23.671875 29.027344 23.351562 C 29.917969 21.164062 31.585938 20.128906 33.929688 20.019531 C 35.609375 19.945312 37.125 20.371094 38.460938 21.351562 C 39.429688 22.0625 40.089844 23.039062 40.570312 24.136719 C 41.160156 25.480469 41.527344 26.890625 41.617188 28.34375 C 41.710938 29.828125 41.890625 31.316406 41.8125 32.816406 C 41.777344 33.625 42.097656 34.332031 42.511719 35.003906 C 43.191406 36.09375 44.039062 37.0625 44.832031 38.070312 C 46.257812 39.878906 47.53125 41.769531 48.304688 43.957031 C 49.078125 46.148438 49.3125 48.410156 49.238281 50.710938 C 49.050781 51.121094 49.070312 51.566406 49.039062 51.992188 C 48.933594 53.453125 47.910156 54.683594 46.46875 54.980469 C 45.785156 55.125 45.085938 55.074219 44.390625 55.046875 C 43.328125 55.003906 42.632812 54.417969 42.195312 53.488281 C 41.816406 52.683594 41.796875 51.820312 41.777344 50.957031 C 41.847656 49.445312 41.734375 47.941406 41.582031 46.441406 C 41.355469 44.242188 40.835938 42.101562 40.140625 40.003906 C 39.507812 38.089844 38.710938 36.242188 37.820312 34.4375 C 37.964844 34.320312 38.113281 34.203125 38.261719 34.085938 C 39.203125 33.328125 39.296875 32.5625 38.574219 31.585938 C 38.257812 31.164062 37.824219 30.875 37.414062 30.558594 C 38.277344 29.308594 38.328125 27.988281 37.714844 26.632812 C 37.417969 25.984375 36.894531 25.632812 36.144531 25.625 C 35.433594 25.617188 34.828125 26.339844 34.582031 27.078125 C 34.332031 27.851562 34.347656 28.636719 34.511719 29.421875 C 33.828125 29.222656 33.140625 29.15625 32.445312 29.335938 C 32.632812 28.351562 32.613281 27.390625 32.085938 26.5 C 31.390625 25.320312 30.003906 25.324219 29.289062 26.492188 C 28.574219 27.660156 28.699219 29.507812 29.570312 30.582031 C 29.121094 30.964844 28.640625 31.308594 28.300781 31.804688 C 27.746094 32.617188 27.738281 33.273438 28.328125 34.0625 C 28.5625 34.371094 28.839844 34.648438 29.09375 34.941406 C 28.601562 36.214844 28.015625 37.449219 27.375 38.652344 C 26.34375 40.589844 25.527344 42.617188 24.792969 44.675781 C 24.203125 46.34375 23.613281 48.011719 23.339844 49.769531 C 22.734375 49.484375 22.117188 49.421875 21.484375 49.65625 "/>
<g clip-path="url(#clip23)" clip-rule="nonzero">
<path style=" stroke:none;fill-rule:nonzero;fill:rgb(92.549133%,63.529968%,6.269836%);fill-opacity:1;" d="M 19.882812 52.519531 C 20.035156 52 20.085938 51.457031 20.34375 50.972656 C 20.648438 50.929688 20.683594 50.609375 20.894531 50.453125 C 21.984375 49.675781 23.265625 49.871094 24.054688 50.964844 C 24.78125 51.972656 25.308594 53.089844 25.851562 54.199219 C 26.386719 55.289062 27.035156 56.28125 28.101562 56.917969 C 28.46875 57.140625 28.660156 57.582031 29.105469 57.699219 L 29.101562 57.703125 C 29.09375 57.835938 29.089844 57.964844 29.28125 57.953125 L 29.28125 57.957031 C 29.304688 57.988281 29.332031 58.019531 29.355469 58.050781 L 29.359375 58.054688 C 29.378906 58.082031 29.402344 58.113281 29.425781 58.144531 C 29.894531 58.847656 30.15625 59.632812 30.316406 60.457031 C 30.40625 61.464844 30.296875 62.441406 29.800781 63.34375 C 28.957031 64.363281 27.867188 64.410156 26.683594 64.144531 C 25.503906 63.882812 24.40625 63.394531 23.339844 62.867188 C 22.488281 62.445312 21.605469 62.367188 20.703125 62.285156 C 19.636719 62.191406 18.578125 62.058594 17.570312 61.675781 C 17.21875 61.542969 16.882812 61.378906 16.585938 61.136719 C 15.96875 60.628906 15.734375 60 15.945312 59.214844 C 16.238281 58.136719 16.167969 57.0625 15.949219 55.972656 C 15.835938 55.402344 15.742188 54.804688 16.066406 54.253906 C 16.414062 54.144531 16.648438 53.855469 16.984375 53.71875 C 17.707031 53.421875 18.46875 53.285156 19.222656 53.152344 C 19.628906 53.074219 19.84375 52.917969 19.882812 52.519531 "/>
</g>
<g clip-path="url(#clip24)" clip-rule="nonzero">
<path style=" stroke:none;fill-rule:nonzero;fill:rgb(92.549133%,63.529968%,6.269836%);fill-opacity:1;" d="M 41.777344 50.957031 C 41.796875 51.820312 41.816406 52.683594 42.195312 53.488281 C 42.632812 54.417969 43.328125 55.003906 44.390625 55.046875 C 45.085938 55.074219 45.785156 55.125 46.46875 54.980469 C 47.910156 54.683594 48.933594 53.453125 49.039062 51.992188 C 49.070312 51.566406 49.050781 51.121094 49.238281 50.710938 C 49.699219 51.066406 49.902344 51.542969 49.882812 52.105469 C 49.863281 52.636719 49.839844 53.167969 49.785156 53.699219 C 49.722656 54.265625 50.007812 54.597656 50.460938 54.875 C 51.09375 55.269531 51.746094 55.65625 52.265625 56.210938 C 52.597656 56.566406 52.835938 56.972656 52.910156 57.457031 C 53.046875 58.292969 52.71875 58.914062 52.015625 59.363281 C 51.328125 59.800781 50.554688 60.046875 49.792969 60.3125 C 48.859375 60.640625 48.050781 61.125 47.40625 61.890625 C 46.90625 62.484375 46.335938 63.023438 45.675781 63.453125 C 44.628906 64.140625 43.46875 64.386719 42.246094 64.257812 C 41.136719 64.136719 40.386719 63.523438 40.035156 62.457031 C 39.839844 61.777344 39.832031 61.078125 39.902344 60.394531 C 39.953125 59.898438 39.976562 59.40625 39.964844 58.910156 C 40.046875 58.660156 40.027344 58.402344 40.046875 58.144531 C 40.179688 56.394531 40.34375 54.652344 40.828125 52.957031 C 41.03125 52.242188 41.253906 51.523438 41.777344 50.957031 "/>
</g>
<path style=" stroke:none;fill-rule:nonzero;fill:rgb(14.509583%,13.729858%,13.328552%);fill-opacity:1;" d="M 39.964844 58.910156 C 39.976562 59.40625 39.953125 59.898438 39.902344 60.394531 C 39.832031 61.078125 39.839844 61.777344 40.035156 62.457031 C 38.128906 62.457031 36.21875 62.433594 34.308594 62.460938 C 32.757812 62.480469 31.246094 62.761719 29.800781 63.34375 C 30.296875 62.441406 30.40625 61.464844 30.316406 60.457031 C 31.832031 60.59375 33.347656 60.609375 34.859375 60.425781 C 36.652344 60.210938 38.355469 59.730469 39.964844 58.910156 "/>
<path style=" stroke:none;fill-rule:nonzero;fill:rgb(95.289612%,76.858521%,27.839661%);fill-opacity:1;" d="M 29.105469 57.699219 C 28.660156 57.582031 28.46875 57.140625 28.101562 56.917969 C 27.035156 56.28125 26.386719 55.289062 25.851562 54.199219 C 25.308594 53.089844 24.78125 51.972656 24.054688 50.964844 C 23.265625 49.871094 21.984375 49.675781 20.894531 50.453125 C 20.683594 50.609375 20.648438 50.929688 20.34375 50.972656 C 20.507812 50.351562 20.933594 49.949219 21.484375 49.65625 C 22.117188 49.421875 22.734375 49.484375 23.339844 49.769531 C 24.054688 50.367188 24.515625 51.144531 24.917969 51.964844 C 25.269531 52.6875 25.617188 53.410156 25.988281 54.125 C 26.453125 55.011719 27.011719 55.816406 27.871094 56.394531 C 28.367188 56.726562 28.8125 57.152344 29.105469 57.699219 "/>
<path style=" stroke:none;fill-rule:nonzero;fill:rgb(95.289612%,76.858521%,27.839661%);fill-opacity:1;" d="M 19.882812 52.519531 C 19.84375 52.917969 19.628906 53.074219 19.222656 53.152344 C 18.46875 53.285156 17.707031 53.421875 16.984375 53.71875 C 16.648438 53.855469 16.414062 54.144531 16.066406 54.253906 C 16.378906 53.535156 17.027344 53.253906 17.710938 53.054688 C 18.425781 52.84375 19.15625 52.691406 19.882812 52.519531 "/>
<path style=" stroke:none;fill-rule:nonzero;fill:rgb(100%,100%,100%);fill-opacity:1;" d="M 29.105469 57.699219 C 28.8125 57.152344 28.367188 56.726562 27.871094 56.394531 C 27.011719 55.816406 26.453125 55.011719 25.988281 54.125 C 25.617188 53.410156 25.269531 52.6875 24.917969 51.964844 C 24.515625 51.144531 24.054688 50.367188 23.339844 49.769531 C 23.613281 48.011719 24.203125 46.34375 24.792969 44.675781 C 25.527344 42.617188 26.34375 40.589844 27.375 38.652344 C 28.015625 37.449219 28.601562 36.214844 29.09375 34.941406 C 29.191406 35.003906 29.289062 35.058594 29.378906 35.128906 C 30.074219 35.675781 30.835938 36.101562 31.660156 36.429688 C 32.171875 36.636719 32.675781 36.65625 33.214844 36.480469 C 34.824219 35.960938 36.371094 35.304688 37.820312 34.4375 C 38.710938 36.242188 39.507812 38.089844 40.140625 40.003906 C 40.835938 42.101562 41.355469 44.242188 41.582031 46.441406 C 41.734375 47.941406 41.847656 49.445312 41.777344 50.957031 C 41.253906 51.523438 41.03125 52.242188 40.828125 52.957031 C 40.34375 54.652344 40.179688 56.394531 40.046875 58.144531 C 40.027344 58.402344 40.046875 58.660156 39.964844 58.910156 C 38.355469 59.730469 36.652344 60.210938 34.859375 60.425781 C 33.347656 60.609375 31.832031 60.59375 30.316406 60.457031 C 30.15625 59.632812 29.894531 58.847656 29.425781 58.144531 C 29.402344 58.113281 29.378906 58.082031 29.359375 58.054688 L 29.355469 58.050781 C 29.332031 58.019531 29.304688 57.988281 29.28125 57.957031 L 29.28125 57.953125 C 29.269531 57.835938 29.214844 57.753906 29.101562 57.703125 L 29.105469 57.699219 "/>
<path style=" stroke:none;fill-rule:nonzero;fill:rgb(92.549133%,63.529968%,6.269836%);fill-opacity:1;" d="M 37.820312 34.4375 C 36.371094 35.304688 34.824219 35.960938 33.214844 36.480469 C 32.675781 36.65625 32.171875 36.636719 31.660156 36.429688 C 30.835938 36.101562 30.074219 35.675781 29.378906 35.128906 C 29.289062 35.058594 29.191406 35.003906 29.09375 34.941406 C 28.839844 34.648438 28.5625 34.371094 28.328125 34.0625 C 27.738281 33.273438 27.746094 32.617188 28.300781 31.804688 C 28.640625 31.308594 29.121094 30.964844 29.570312 30.582031 C 29.785156 30.496094 29.980469 30.375 30.152344 30.222656 C 30.589844 30.019531 31.023438 29.816406 31.460938 29.613281 C 31.785156 29.519531 32.117188 29.429688 32.445312 29.335938 C 33.140625 29.15625 33.828125 29.222656 34.511719 29.421875 C 34.828125 29.511719 35.148438 29.601562 35.464844 29.691406 C 35.917969 29.867188 36.371094 30.042969 36.824219 30.21875 C 36.957031 30.4375 37.203125 30.46875 37.414062 30.558594 C 37.824219 30.875 38.257812 31.164062 38.574219 31.585938 C 39.296875 32.5625 39.203125 33.328125 38.261719 34.085938 C 38.113281 34.203125 37.964844 34.320312 37.820312 34.4375 "/>
<path style=" stroke:none;fill-rule:nonzero;fill:rgb(100%,100%,100%);fill-opacity:1;" d="M 37.414062 30.558594 C 37.203125 30.46875 36.957031 30.4375 36.824219 30.21875 C 37.171875 29.527344 37.179688 28.8125 36.9375 28.089844 C 36.824219 27.753906 36.660156 27.398438 36.261719 27.398438 C 35.832031 27.394531 35.675781 27.769531 35.550781 28.113281 C 35.367188 28.628906 35.394531 29.160156 35.464844 29.691406 C 35.148438 29.601562 34.828125 29.511719 34.511719 29.421875 C 34.347656 28.636719 34.332031 27.851562 34.582031 27.078125 C 34.828125 26.339844 35.433594 25.617188 36.144531 25.625 C 36.894531 25.632812 37.417969 25.984375 37.714844 26.632812 C 38.328125 27.988281 38.277344 29.308594 37.414062 30.558594 "/>
<path style=" stroke:none;fill-rule:nonzero;fill:rgb(100%,100%,100%);fill-opacity:1;" d="M 30.152344 30.222656 C 29.980469 30.375 29.785156 30.496094 29.570312 30.582031 C 28.699219 29.507812 28.574219 27.660156 29.289062 26.492188 C 30.003906 25.324219 31.390625 25.320312 32.085938 26.5 C 32.613281 27.390625 32.632812 28.351562 32.445312 29.335938 C 32.117188 29.429688 31.785156 29.519531 31.460938 29.613281 C 31.570312 29.035156 31.542969 28.472656 31.300781 27.925781 C 31.179688 27.65625 31.019531 27.394531 30.6875 27.394531 C 30.355469 27.398438 30.179688 27.660156 30.074219 27.933594 C 29.769531 28.703125 29.773438 29.472656 30.152344 30.222656 "/>
<path style=" stroke:none;fill-rule:nonzero;fill:rgb(95.289612%,76.858521%,27.839661%);fill-opacity:1;" d="M 29.101562 57.703125 C 29.214844 57.753906 29.269531 57.835938 29.28125 57.953125 C 29.089844 57.964844 29.09375 57.835938 29.101562 57.703125 "/>
<path style=" stroke:none;fill-rule:nonzero;fill:rgb(95.289612%,76.858521%,27.839661%);fill-opacity:1;" d="M 29.28125 57.957031 C 29.304688 57.988281 29.332031 58.019531 29.355469 58.050781 C 29.332031 58.019531 29.304688 57.988281 29.28125 57.957031 "/>
<path style=" stroke:none;fill-rule:nonzero;fill:rgb(95.289612%,76.858521%,27.839661%);fill-opacity:1;" d="M 29.359375 58.054688 C 29.378906 58.082031 29.402344 58.113281 29.425781 58.144531 C 29.402344 58.113281 29.378906 58.082031 29.359375 58.054688 "/>
<path style=" stroke:none;fill-rule:nonzero;fill:rgb(14.509583%,13.729858%,13.328552%);fill-opacity:1;" d="M 35.464844 29.691406 C 35.394531 29.160156 35.367188 28.628906 35.550781 28.113281 C 35.675781 27.769531 35.832031 27.394531 36.261719 27.398438 C 36.660156 27.398438 36.824219 27.753906 36.9375 28.089844 C 37.179688 28.8125 37.171875 29.527344 36.824219 30.21875 C 36.371094 30.042969 35.917969 29.867188 35.464844 29.691406 "/>
<path style=" stroke:none;fill-rule:nonzero;fill:rgb(14.509583%,13.729858%,13.328552%);fill-opacity:1;" d="M 30.152344 30.222656 C 29.773438 29.472656 29.769531 28.703125 30.074219 27.933594 C 30.179688 27.660156 30.355469 27.398438 30.6875 27.394531 C 31.019531 27.394531 31.179688 27.65625 31.300781 27.925781 C 31.542969 28.472656 31.570312 29.035156 31.460938 29.613281 C 31.023438 29.816406 30.589844 30.019531 30.152344 30.222656 "/>
<g clip-path="url(#clip25)" clip-rule="nonzero">
<path style=" stroke:none;fill-rule:nonzero;fill:rgb(0.389099%,43.139648%,77.249146%);fill-opacity:1;" d="M 101.101562 19.851562 L 101.101562 58.21875 L 67.597656 53.242188 L 101.101562 64.523438 L 112.269531 59.875 L 112.269531 25.1875 L 112.273438 25.1875 L 112.269531 25.179688 L 112.269531 24.496094 Z M 89.375 26.386719 L 79.113281 36.53125 L 72.9375 31.878906 L 70.390625 32.726562 L 76.675781 38.941406 L 70.390625 45.152344 L 72.9375 46.003906 L 79.113281 41.351562 L 89.375 51.492188 L 95.519531 48.882812 L 95.519531 28.996094 Z M 89.375 33.625 L 89.375 44.257812 L 82.316406 38.9375 Z M 89.375 33.625 "/>
</g>
<g clip-path="url(#clip26)" clip-rule="nonzero">
<path style=" stroke:none;fill-rule:nonzero;fill:rgb(14.509583%,18.429565%,24.308777%);fill-opacity:1;" d="M 147.8125 38.382812 C 147.8125 39.050781 147.886719 39.59375 148.011719 39.992188 C 148.152344 40.394531 148.332031 40.828125 148.582031 41.300781 C 148.671875 41.445312 148.707031 41.589844 148.707031 41.714844 C 148.707031 41.898438 148.601562 42.078125 148.367188 42.257812 L 147.242188 43.019531 C 147.082031 43.128906 146.917969 43.183594 146.777344 43.183594 C 146.597656 43.183594 146.417969 43.09375 146.238281 42.929688 C 145.988281 42.65625 145.773438 42.367188 145.59375 42.078125 C 145.417969 41.769531 145.238281 41.425781 145.039062 41.007812 C 143.644531 42.675781 141.890625 43.511719 139.78125 43.511719 C 138.277344 43.511719 137.078125 43.074219 136.199219 42.207031 C 135.324219 41.335938 134.878906 40.175781 134.878906 38.726562 C 134.878906 37.183594 135.414062 35.933594 136.503906 34.992188 C 137.597656 34.050781 139.046875 33.578125 140.890625 33.578125 C 141.496094 33.578125 142.125 33.632812 142.785156 33.722656 C 143.449219 33.8125 144.128906 33.960938 144.84375 34.121094 L 144.84375 32.800781 C 144.84375 31.421875 144.558594 30.460938 144.003906 29.898438 C 143.429688 29.339844 142.464844 29.066406 141.085938 29.066406 C 140.460938 29.066406 139.816406 29.140625 139.152344 29.300781 C 138.492188 29.464844 137.847656 29.664062 137.222656 29.917969 C 136.933594 30.042969 136.71875 30.117188 136.59375 30.152344 C 136.46875 30.191406 136.378906 30.207031 136.308594 30.207031 C 136.058594 30.207031 135.933594 30.027344 135.933594 29.644531 L 135.933594 28.757812 C 135.933594 28.46875 135.96875 28.25 136.058594 28.125 C 136.148438 27.996094 136.308594 27.871094 136.558594 27.742188 C 137.183594 27.417969 137.9375 27.144531 138.8125 26.925781 C 139.691406 26.691406 140.621094 26.582031 141.605469 26.582031 C 143.734375 26.582031 145.289062 27.074219 146.292969 28.050781 C 147.277344 29.03125 147.777344 30.515625 147.777344 32.507812 L 147.777344 38.382812 Z M 140.550781 41.136719 C 141.140625 41.136719 141.75 41.027344 142.390625 40.808594 C 143.035156 40.59375 143.609375 40.195312 144.09375 39.648438 C 144.378906 39.304688 144.59375 38.925781 144.699219 38.488281 C 144.808594 38.054688 144.878906 37.53125 144.878906 36.914062 L 144.878906 36.152344 C 144.359375 36.023438 143.804688 35.917969 143.234375 35.84375 C 142.660156 35.773438 142.105469 35.734375 141.550781 35.734375 C 140.351562 35.734375 139.476562 35.972656 138.886719 36.460938 C 138.292969 36.949219 138.007812 37.636719 138.007812 38.542969 C 138.007812 39.394531 138.222656 40.03125 138.671875 40.464844 C 139.101562 40.917969 139.726562 41.136719 140.550781 41.136719 Z M 154.917969 43.09375 C 154.59375 43.09375 154.378906 43.039062 154.238281 42.910156 C 154.09375 42.804688 153.96875 42.550781 153.859375 42.207031 L 149.65625 28.195312 C 149.550781 27.832031 149.496094 27.597656 149.496094 27.472656 C 149.496094 27.179688 149.640625 27.019531 149.925781 27.019531 L 151.679688 27.019531 C 152.019531 27.019531 152.25 27.074219 152.375 27.199219 C 152.519531 27.308594 152.628906 27.5625 152.734375 27.90625 L 155.738281 39.902344 L 158.53125 27.90625 C 158.621094 27.542969 158.730469 27.308594 158.871094 27.199219 C 159.015625 27.089844 159.265625 27.019531 159.585938 27.019531 L 161.019531 27.019531 C 161.359375 27.019531 161.589844 27.074219 161.734375 27.199219 C 161.878906 27.308594 162.003906 27.5625 162.074219 27.90625 L 164.902344 40.046875 L 167.996094 27.90625 C 168.105469 27.542969 168.230469 27.308594 168.355469 27.199219 C 168.496094 27.089844 168.730469 27.019531 169.050781 27.019531 L 170.71875 27.019531 C 171.003906 27.019531 171.164062 27.164062 171.164062 27.472656 C 171.164062 27.5625 171.148438 27.652344 171.128906 27.761719 C 171.109375 27.871094 171.074219 28.015625 171.003906 28.214844 L 166.691406 42.222656 C 166.582031 42.585938 166.457031 42.820312 166.316406 42.929688 C 166.171875 43.039062 165.9375 43.113281 165.636719 43.113281 L 164.097656 43.113281 C 163.757812 43.113281 163.523438 43.058594 163.382812 42.929688 C 163.238281 42.804688 163.113281 42.566406 163.042969 42.207031 L 160.265625 30.515625 L 157.511719 42.1875 C 157.421875 42.550781 157.3125 42.785156 157.171875 42.910156 C 157.03125 43.039062 156.777344 43.09375 156.457031 43.09375 Z M 177.910156 43.582031 C 176.980469 43.582031 176.050781 43.472656 175.15625 43.257812 C 174.261719 43.039062 173.5625 42.804688 173.097656 42.53125 C 172.808594 42.367188 172.613281 42.1875 172.542969 42.023438 C 172.46875 41.859375 172.433594 41.679688 172.433594 41.515625 L 172.433594 40.59375 C 172.433594 40.210938 172.578125 40.03125 172.847656 40.03125 C 172.953125 40.03125 173.0625 40.046875 173.167969 40.085938 C 173.277344 40.121094 173.4375 40.195312 173.617188 40.265625 C 174.222656 40.539062 174.886719 40.753906 175.582031 40.898438 C 176.300781 41.046875 176.996094 41.117188 177.714844 41.117188 C 178.839844 41.117188 179.714844 40.917969 180.328125 40.519531 C 180.933594 40.121094 181.253906 39.542969 181.253906 38.796875 C 181.253906 38.289062 181.09375 37.875 180.773438 37.53125 C 180.453125 37.183594 179.84375 36.878906 178.964844 36.585938 L 176.371094 35.773438 C 175.0625 35.355469 174.101562 34.738281 173.507812 33.921875 C 172.917969 33.125 172.613281 32.238281 172.613281 31.296875 C 172.613281 30.535156 172.773438 29.863281 173.097656 29.285156 C 173.421875 28.703125 173.847656 28.195312 174.382812 27.796875 C 174.921875 27.378906 175.53125 27.074219 176.246094 26.855469 C 176.960938 26.636719 177.714844 26.546875 178.5 26.546875 C 178.894531 26.546875 179.304688 26.566406 179.699219 26.621094 C 180.113281 26.675781 180.488281 26.746094 180.863281 26.820312 C 181.21875 26.910156 181.558594 27 181.882812 27.109375 C 182.207031 27.21875 182.453125 27.328125 182.632812 27.433594 C 182.886719 27.582031 183.066406 27.726562 183.171875 27.886719 C 183.277344 28.035156 183.332031 28.234375 183.332031 28.484375 L 183.332031 29.339844 C 183.332031 29.71875 183.1875 29.917969 182.921875 29.917969 C 182.777344 29.917969 182.546875 29.84375 182.242188 29.699219 C 181.21875 29.230469 180.074219 28.992188 178.804688 28.992188 C 177.785156 28.992188 176.980469 29.15625 176.425781 29.5 C 175.871094 29.84375 175.582031 30.371094 175.582031 31.113281 C 175.582031 31.621094 175.761719 32.054688 176.121094 32.402344 C 176.480469 32.746094 177.140625 33.089844 178.089844 33.398438 L 180.628906 34.214844 C 181.917969 34.628906 182.847656 35.210938 183.40625 35.953125 C 183.957031 36.695312 184.226562 37.546875 184.226562 38.488281 C 184.226562 39.269531 184.066406 39.976562 183.761719 40.59375 C 183.441406 41.207031 183.007812 41.75 182.453125 42.1875 C 181.902344 42.640625 181.238281 42.964844 180.46875 43.203125 C 179.664062 43.457031 178.824219 43.582031 177.910156 43.582031 Z M 177.910156 43.582031 "/>
</g>
<g clip-path="url(#clip27)" clip-rule="nonzero">
<path style=" stroke:none;fill-rule:nonzero;fill:rgb(100%,59.999084%,0%);fill-opacity:1;" d="M 181.292969 52.390625 C 175.402344 56.792969 166.851562 59.132812 159.5 59.132812 C 149.191406 59.132812 139.90625 55.269531 132.890625 48.855469 C 132.335938 48.347656 132.835938 47.660156 133.5 48.058594 C 141.085938 52.515625 150.445312 55.21875 160.125 55.21875 C 166.652344 55.21875 173.832031 53.839844 180.433594 51.011719 C 181.417969 50.558594 182.257812 51.664062 181.289062 52.390625 Z M 183.746094 49.5625 C 182.992188 48.582031 178.769531 49.09375 176.855469 49.328125 C 176.28125 49.398438 176.191406 48.890625 176.710938 48.511719 C 180.074219 46.121094 185.605469 46.808594 186.246094 47.605469 C 186.894531 48.421875 186.070312 54.019531 182.921875 56.703125 C 182.4375 57.121094 181.972656 56.902344 182.1875 56.359375 C 182.902344 54.566406 184.496094 50.523438 183.746094 49.5625 Z M 183.746094 49.5625 "/>
</g>
</g>
</svg>
